<svg width="100" height="100" viewBox="0 0 100 100" fill="none" xmlns="http://www.w3.org/2000/svg">
<path d="M93.75 75H81.25V62.5H75V75H62.5V81.25H75V93.75H81.25V81.25H93.75V75Z" fill="white"/>
<path d="M50 87.5H25V12.5H50V31.25C50.0049 32.906 50.665 34.4929 51.836 35.6639C53.0071 36.835 54.5939 37.495 56.25 37.5H75V50H81.25V31.25C81.261 30.8393 81.1829 30.4311 81.0211 30.0534C80.8592 29.6758 80.6175 29.3377 80.3125 29.0625L58.4375 7.18746C58.1624 6.88229 57.8243 6.64043 57.4467 6.47858C57.069 6.31673 56.6607 6.23873 56.25 6.24996H25C23.3439 6.25491 21.7571 6.91498 20.586 8.08601C19.415 9.25704 18.7549 10.8439 18.75 12.5V87.5C18.7549 89.156 19.415 90.7429 20.586 91.9139C21.7571 93.085 23.3439 93.745 25 93.75H50V87.5ZM56.25 13.75L73.75 31.25H56.25V13.75Z" fill="white"/>
</svg>
