<svg width="100" height="100" viewBox="0 0 32 32" fill="none" xmlns="http://www.w3.org/2000/svg">
<path d="M17 2V9C17 9.79565 17.3161 10.5587 17.8787 11.1213C18.4413 11.6839 19.2044 12 20 12H27V27C27 27.7956 26.6839 28.5587 26.1213 29.1213C25.5587 29.6839 24.7956 30 24 30H8C7.20435 30 6.44129 29.6839 5.87868 29.1213C5.31607 28.5587 5 27.7956 5 27V5C5 4.20435 5.31607 3.44129 5.87868 2.87868C6.44129 2.31607 7.20435 2 8 2H17ZM19 2.117V9C19 9.26522 19.1054 9.51957 19.2929 9.70711C19.4804 9.89464 19.7348 10 20 10H26.883C26.7427 9.5114 26.4804 9.06648 26.121 8.707L20.293 2.88C19.9336 2.52019 19.4887 2.25763 19 2.117V2.117Z" fill="black"/>
</svg>
