<svg width="64" height="64" viewBox="0 0 64 64" fill="none" xmlns="http://www.w3.org/2000/svg">
<path d="M31.9734 58.6667C17.248 58.6507 5.32271 46.7067 5.33338 31.9814C5.34405 17.2587 17.2854 5.32804 32.008 5.33338C46.7334 5.33871 58.6667 17.2747 58.6667 32C58.6587 46.7334 46.7067 58.672 31.9734 58.6667ZM10.6667 32.4587C10.7273 38.0965 13.0172 43.481 17.036 47.4355C21.0547 51.3899 26.4755 53.5927 32.1135 53.5624C37.7515 53.5321 43.1482 51.2712 47.1242 47.2737C51.1002 43.2763 53.3321 37.8675 53.3321 32.2294C53.3321 26.5913 51.1002 21.1825 47.1242 17.185C43.1482 13.1876 37.7515 10.9267 32.1135 10.8963C26.4755 10.866 21.0547 13.0688 17.036 17.0233C13.0172 20.9778 10.7273 26.3623 10.6667 32V32.4587ZM34.6667 45.3334H29.3334V40H34.6667V45.3334ZM34.6667 34.6667H29.3334V18.6667H34.6667V34.6667Z" fill="#FF2F2F"/>
</svg>
