<svg width="100" height="100" viewBox="0 0 24 24" fill="none" xmlns="http://www.w3.org/2000/svg">
<path d="M17.5348 3.36008L16.3097 2H6.6622C5.96616 2 5.69715 2.51603 5.69715 2.91905V6.54925H7.05023V3.65309C7.05023 3.49908 7.18023 3.36908 7.33024 3.36908H14.2336C14.3856 3.36908 14.4616 3.39608 14.4616 3.52108V8.34135H19.3749C19.5679 8.34135 19.6429 8.44136 19.6429 8.58737V20.358C19.6429 20.604 19.5429 20.641 19.3929 20.641H7.33024C7.25586 20.6392 7.18508 20.6086 7.13284 20.5556C7.0806 20.5026 7.05098 20.4314 7.05023 20.357V19.281H5.70615V20.9761C5.68815 21.5761 6.00817 22.0011 6.6622 22.0011H20.0609C20.761 22.0011 21 21.4941 21 21.0321V7.18729L20.65 6.80727L17.5338 3.36108L17.5348 3.36008ZM15.8367 3.52008L16.2237 3.95411L18.8199 6.80727L18.9629 6.98028H16.3097C16.1097 6.98028 15.9827 6.94727 15.9297 6.88027C15.8767 6.81527 15.8457 6.71026 15.8367 6.56725V3.52008V3.52008ZM14.7467 12.6676H19.3239V14.0017H14.7457V12.6676H14.7467ZM14.7467 10.0014H19.3239V11.3345H14.7457V10.0004L14.7467 10.0014ZM14.7467 15.3347H19.3239V16.6688H14.7457V15.3347H14.7467ZM3 7.62631V18.2939H13.4656V7.62631H3ZM8.23329 13.8307L7.59326 14.8087H8.23329V16.0008H5.01611L7.35024 12.4906L5.28213 9.33441H7.01022L8.23429 11.1705L9.45736 9.33441H11.1845L9.11234 12.4906L11.4495 16.0008H9.65637L8.23329 13.8307Z" fill="black"/>
</svg>
