<svg width="100" height="100" viewBox="0 0 24 24" fill="none" xmlns="http://www.w3.org/2000/svg">
<path d="M18 22H6C5.46957 22 4.96086 21.7893 4.58579 21.4142C4.21071 21.0391 4 20.5304 4 20V3.99999C4 3.46956 4.21071 2.96085 4.58579 2.58578C4.96086 2.21071 5.46957 1.99999 6 1.99999H13C13.009 1.99882 13.018 1.99882 13.027 1.99999H13.033C13.0424 2.00295 13.0522 2.00496 13.062 2.00599C13.15 2.01199 13.237 2.02899 13.321 2.05699H13.363C13.3815 2.06991 13.3988 2.08429 13.415 2.09999C13.5239 2.14844 13.6232 2.2162 13.708 2.29999L19.708 8.29999C19.7918 8.38478 19.8596 8.48405 19.908 8.593C19.9167 8.61462 19.9244 8.63664 19.931 8.659L19.941 8.687C19.969 8.77 19.985 8.85699 19.99 8.94499C19.9909 8.95496 19.9932 8.96473 19.997 8.97399V8.97999C19.9986 8.98656 19.9996 8.99325 20 8.99999V20C20 20.5304 19.7893 21.0391 19.4142 21.4142C19.0391 21.7893 18.5304 22 18 22ZM16.261 15V19H18.5V18.33H17.074V15H16.261V15ZM14.861 16.258L14.787 17.917V19H15.602V15H14.545L13.788 17.894L13.028 15H11.967V19H12.78V17.917L12.7 16.25L13.5 19H14.054L14.861 16.258V16.258ZM8.712 15V15.673H9.69V19H10.505V15.673H11.5V15H8.712ZM6.312 17.289H7.512V19H8.322V15H7.512V16.618H6.312V15H5.5V19H6.312V17.289V17.289ZM13 3.99999V8.99999H18L13 3.99999Z" fill="black"/>
</svg>
