<svg width="64" height="64" viewBox="0 0 64 64" fill="none" xmlns="http://www.w3.org/2000/svg">
<path d="M32.0001 58.6667C35.5026 58.6713 38.9716 57.9836 42.2075 56.6431C45.4435 55.3027 48.3826 53.336 50.8561 50.8561C53.336 48.3826 55.3027 45.4435 56.6431 42.2075C57.9836 38.9716 58.6713 35.5026 58.6667 32.0001C58.6712 28.4975 57.9835 25.0286 56.643 21.7926C55.3026 18.5567 53.336 15.6175 50.8561 13.1441C48.3826 10.6641 45.4435 8.69739 42.2075 7.35698C38.9716 6.01656 35.5026 5.32886 32.0001 5.3334C28.4975 5.32893 25.0286 6.01667 21.7926 7.35708C18.5567 8.69749 15.6175 10.6642 13.1441 13.1441C10.6642 15.6175 8.69749 18.5567 7.35708 21.7926C6.01667 25.0286 5.32893 28.4975 5.3334 32.0001C5.32886 35.5026 6.01656 38.9716 7.35698 42.2075C8.69739 45.4435 10.6641 48.3826 13.1441 50.8561C15.6175 53.336 18.5567 55.3026 21.7926 56.643C25.0286 57.9835 28.4975 58.6712 32.0001 58.6667V58.6667Z" fill="#2F88FF" stroke="#2F88FF" stroke-width="5.33333" stroke-linejoin="round"/>
<path fill-rule="evenodd" clip-rule="evenodd" d="M32 14.6666C32.884 14.6666 33.7319 15.0178 34.357 15.6429C34.9821 16.2681 35.3333 17.1159 35.3333 18C35.3333 18.884 34.9821 19.7319 34.357 20.357C33.7319 20.9821 32.884 21.3333 32 21.3333C31.1159 21.3333 30.2681 20.9821 29.6429 20.357C29.0178 19.7319 28.6666 18.884 28.6666 18C28.6666 17.1159 29.0178 16.2681 29.6429 15.6429C30.2681 15.0178 31.1159 14.6666 32 14.6666V14.6666Z" fill="white"/>
<path d="M28 45.3333H37.3333M32.6667 45.3333V26.6666H30L32.6667 45.3333Z" stroke="white" stroke-width="5.33333" stroke-linecap="round" stroke-linejoin="round"/>
</svg>
