<svg width="100" height="100" viewBox="0 0 100 100" fill="none" xmlns="http://www.w3.org/2000/svg">
<path d="M50 100C63.2608 100 75.9785 94.7322 85.3553 85.3553C94.7322 75.9785 100 63.2608 100 50C100 36.7392 94.7322 24.0215 85.3553 14.6447C75.9785 5.26784 63.2608 0 50 0C36.7392 0 24.0215 5.26784 14.6447 14.6447C5.26784 24.0215 0 36.7392 0 50C0 63.2608 5.26784 75.9785 14.6447 85.3553C24.0215 94.7322 36.7392 100 50 100V100ZM55.8125 41.175L49.5625 70.5813C49.125 72.7063 49.7438 73.9125 51.4625 73.9125C52.675 73.9125 54.5063 73.475 55.75 72.375L55.2 74.975C53.4062 77.1375 49.45 78.7125 46.0438 78.7125C41.65 78.7125 39.7813 76.075 40.9938 70.4687L45.6062 48.7938C46.0062 46.9625 45.6438 46.3 43.8125 45.8562L40.9938 45.35L41.5062 42.9688L55.8187 41.175H55.8125ZM50 34.375C48.3424 34.375 46.7527 33.7165 45.5806 32.5444C44.4085 31.3723 43.75 29.7826 43.75 28.125C43.75 26.4674 44.4085 24.8777 45.5806 23.7056C46.7527 22.5335 48.3424 21.875 50 21.875C51.6576 21.875 53.2473 22.5335 54.4194 23.7056C55.5915 24.8777 56.25 26.4674 56.25 28.125C56.25 29.7826 55.5915 31.3723 54.4194 32.5444C53.2473 33.7165 51.6576 34.375 50 34.375V34.375Z" fill="white"/>
</svg>
