<svg width="601" height="144" viewBox="0 0 601 144" fill="none" xmlns="http://www.w3.org/2000/svg">
<path fill-rule="evenodd" clip-rule="evenodd" d="M7.75 12C3.46979 12 0 15.4698 0 19.75V135.757C0 140.037 3.46981 143.507 7.75001 143.507H238.825C243.106 143.507 246.575 140.037 246.575 135.757V19.75C246.575 15.4698 243.106 12 238.825 12H7.75ZM49.6748 110H66.2288L68.2748 98.189H77.4818L79.8068 84.797H70.5998L72.9248 72.056H57.5798L55.2548 84.797H45.3038L46.2338 79.403L73.1108 44.9H55.4408L29.1218 76.706L25.3088 98.189H51.7208L49.6748 110ZM142.309 62.105C142.309 48.961 134.993 42.389 120.361 42.389C102.877 42.389 92.5233 51.627 89.2993 70.103L87.0673 83.123C86.5713 86.161 86.3233 88.982 86.3233 91.586C86.3233 96.98 87.4703 101.258 89.7643 104.42C93.1743 109.008 99.3433 111.302 108.271 111.302C117.261 111.302 124.267 108.977 129.289 104.327C134.373 99.677 137.721 92.609 139.333 83.123L141.565 70.103C142.061 67.189 142.309 64.523 142.309 62.105ZM110.782 96.887C105.76 96.887 103.249 94.159 103.249 88.703C103.249 87.029 103.435 85.045 103.807 82.751L106.039 70.475C107.651 61.485 111.619 56.928 117.943 56.804C122.903 56.804 125.383 59.594 125.383 65.174C125.383 66.662 125.197 68.429 124.825 70.475L122.686 82.751C121.756 88.083 120.299 91.772 118.315 93.818C116.393 95.864 113.882 96.887 110.782 96.887ZM169.013 110H185.567L187.613 98.189H196.82L199.145 84.797H189.938L192.263 72.056H176.918L174.593 84.797H164.642L165.572 79.403L192.449 44.9H174.779L148.46 76.706L144.647 98.189H171.059L169.013 110Z" fill="#003CB0"/>
<path d="M317.186 94.1264L318.681 94.2495L318.815 92.6264H317.186V94.1264ZM314.071 101.892L312.86 101.006L312.858 101.009L314.071 101.892ZM306.166 108.169L306.812 109.523L306.822 109.518L306.166 108.169ZM280.358 107.379L281.105 106.078L281.105 106.078L280.358 107.379ZM271.43 98.3579L270.119 99.0873L270.124 99.0953L271.43 98.3579ZM271.477 71.8064L272.78 72.5483L272.783 72.5438L271.477 71.8064ZM280.451 62.7854L281.193 64.0891L281.193 64.0891L280.451 62.7854ZM306.491 62.7854L305.726 64.0755L305.726 64.0755L306.491 62.7854ZM314.954 71.7134L313.626 72.4102L313.628 72.4147L314.954 71.7134ZM317.884 86.5004L319.383 86.5581L319.383 86.5581L317.884 86.5004ZM317.744 88.1279V89.6279H318.947L319.208 88.4533L317.744 88.1279ZM276.08 88.1279V86.6279H274.384L274.591 88.3116L276.08 88.1279ZM281.614 99.3344L282.598 98.2027L282.598 98.2027L281.614 99.3344ZM302.306 101.985L302.883 103.37L302.891 103.366L302.899 103.363L302.306 101.985ZM307.328 98.4044L306.159 97.4643L306.153 97.4721L306.147 97.4799L307.328 98.4044ZM309.281 94.1264V92.6264H307.935L307.79 93.9643L309.281 94.1264ZM281.986 70.5509L282.931 71.7155L282.938 71.7098L281.986 70.5509ZM276.22 81.0599L274.738 80.8233L274.461 82.5599H276.22V81.0599ZM309.421 81.0599V82.5599H311.03L310.917 80.9547L309.421 81.0599ZM305.003 70.9229L303.913 71.9532L303.919 71.9592L305.003 70.9229ZM315.691 94.0033C315.501 96.314 314.588 98.6442 312.86 101.006L315.281 102.778C317.273 100.056 318.437 97.2088 318.681 94.2495L315.691 94.0033ZM312.858 101.009C311.204 103.28 308.78 105.229 305.509 106.821L306.822 109.518C310.433 107.761 313.28 105.525 315.283 102.775L312.858 101.009ZM305.519 106.816C302.334 108.337 298.337 109.134 293.471 109.134V112.134C298.649 112.134 303.116 111.288 306.812 109.523L305.519 106.816ZM293.471 109.134C288.736 109.134 284.63 108.1 281.105 106.078L279.612 108.68C283.651 110.997 288.286 112.134 293.471 112.134V109.134ZM281.105 106.078C277.56 104.044 274.776 101.233 272.736 97.6205L270.124 99.0953C272.425 103.171 275.593 106.374 279.612 108.68L281.105 106.078ZM272.741 97.6285C270.742 94.0362 269.722 89.876 269.722 85.1054H266.722C266.722 90.3168 267.84 94.9916 270.119 99.0873L272.741 97.6285ZM269.722 85.1054C269.722 80.2726 270.757 76.1029 272.78 72.5483L270.173 71.0645C267.856 75.136 266.722 79.8322 266.722 85.1054H269.722ZM272.783 72.5438C274.82 68.9346 277.617 66.124 281.193 64.0891L279.709 61.4817C275.659 63.7868 272.473 66.9902 270.17 71.069L272.783 72.5438ZM281.193 64.0891C284.755 62.0622 288.849 61.0304 293.518 61.0304V58.0304C288.39 58.0304 283.774 59.1686 279.709 61.4817L281.193 64.0891ZM293.518 61.0304C298.287 61.0304 302.337 62.0651 305.726 64.0755L307.256 61.4953C303.329 59.1657 298.731 58.0304 293.518 58.0304V61.0304ZM305.726 64.0755C309.144 66.1031 311.77 68.8732 313.626 72.4102L316.282 71.0166C314.17 66.9896 311.155 63.8077 307.256 61.4953L305.726 64.0755ZM313.628 72.4147C315.484 75.9225 316.43 79.9542 316.43 84.5474H319.43C319.43 79.5307 318.393 75.0064 316.28 71.0121L313.628 72.4147ZM316.43 84.5474C316.43 85.0161 316.415 85.6457 316.385 86.4428L319.383 86.5581C319.414 85.7431 319.43 85.0707 319.43 84.5474H316.43ZM316.385 86.4428C316.353 87.2656 316.308 87.6758 316.28 87.8025L319.208 88.4533C319.304 88.022 319.352 87.3472 319.383 86.5581L316.385 86.4428ZM317.744 86.6279H276.08V89.6279H317.744V86.6279ZM274.591 88.3116C275.218 93.3864 277.203 97.4854 280.629 100.466L282.598 98.2027C279.824 95.7894 278.121 92.4174 277.569 87.9442L274.591 88.3116ZM280.629 100.466C284.056 103.447 288.46 104.88 293.704 104.88V101.88C289.027 101.88 285.371 100.615 282.598 98.2027L280.629 100.466ZM293.704 104.88C297.323 104.88 300.406 104.402 302.883 103.37L301.729 100.6C299.743 101.428 297.09 101.88 293.704 101.88V104.88ZM302.899 103.363C305.286 102.335 307.195 101.009 308.509 99.3289L306.147 97.4799C305.23 98.6518 303.79 99.713 301.713 100.607L302.899 103.363ZM308.497 99.3445C309.774 97.7563 310.579 96.0683 310.772 94.2885L307.79 93.9643C307.673 95.0366 307.176 96.2005 306.159 97.4643L308.497 99.3445ZM309.281 95.6264H317.186V92.6264H309.281V95.6264ZM293.611 65.1914C288.696 65.1914 284.47 66.568 281.033 69.392L282.938 71.7098C285.764 69.3879 289.288 68.1914 293.611 68.1914V65.1914ZM281.04 69.3864C277.587 72.1898 275.502 76.042 274.738 80.8233L277.701 81.2965C278.363 77.1498 280.122 73.9961 282.931 71.7154L281.04 69.3864ZM276.22 82.5599H309.421V79.5599H276.22V82.5599ZM310.917 80.9547C310.614 76.6495 309.003 72.9378 306.088 69.8866L303.919 71.9592C306.335 74.488 307.669 77.5343 307.924 81.1651L310.917 80.9547ZM306.093 69.8926C303.072 66.6956 298.834 65.1914 293.611 65.1914V68.1914C298.245 68.1914 301.602 69.5082 303.913 71.9532L306.093 69.8926ZM330.251 109.657H328.751V111.157H330.251V109.657ZM330.251 60.2744V58.7744H328.751V60.2744H330.251ZM338.156 60.2744H339.656V58.7744H338.156V60.2744ZM338.156 67.5284H336.656V71.8693L339.336 68.4545L338.156 67.5284ZM345.317 61.7159L345.988 63.0576L345.994 63.0547L345.317 61.7159ZM368.288 64.3664L367.263 65.461L367.268 65.4656L368.288 64.3664ZM373.496 109.657V111.157H374.996V109.657H373.496ZM365.591 109.657H364.091V111.157H365.591V109.657ZM362.615 70.5509L361.467 71.5157L361.474 71.5246L362.615 70.5509ZM345.55 69.1094L346.319 70.3972L346.324 70.3941L345.55 69.1094ZM340.156 74.5499L338.866 73.7833L338.863 73.7886L340.156 74.5499ZM338.156 109.657V111.157H339.656V109.657H338.156ZM331.751 109.657V60.2744H328.751V109.657H331.751ZM330.251 61.7744H338.156V58.7744H330.251V61.7744ZM336.656 60.2744V67.5284H339.656V60.2744H336.656ZM339.336 68.4545C341.118 66.1843 343.329 64.3869 345.988 63.0576L344.646 60.3743C341.601 61.897 339.039 63.9746 336.976 66.6023L339.336 68.4545ZM345.994 63.0547C348.665 61.7045 351.502 61.0304 354.524 61.0304V58.0304C351.036 58.0304 347.735 58.8133 344.641 60.3772L345.994 63.0547ZM354.524 61.0304C359.965 61.0304 364.157 62.5514 367.263 65.461L369.314 63.2718C365.537 59.7334 360.553 58.0304 354.524 58.0304V61.0304ZM367.268 65.4656C370.372 68.3487 371.996 72.3795 371.996 77.7584H374.996C374.996 71.7293 373.148 66.8321 369.309 63.2672L367.268 65.4656ZM371.996 77.7584V109.657H374.996V77.7584H371.996ZM373.496 108.157H365.591V111.157H373.496V108.157ZM367.091 109.657V79.8509H364.091V109.657H367.091ZM367.091 79.8509C367.091 75.7172 366.029 72.2401 363.756 69.5772L361.474 71.5246C363.17 73.5117 364.091 76.2347 364.091 79.8509H367.091ZM363.764 69.5861C361.409 66.7826 357.644 65.5634 352.897 65.5634V68.5634C357.201 68.5634 359.916 69.6692 361.467 71.5157L363.764 69.5861ZM352.897 65.5634C349.988 65.5634 347.271 66.3203 344.775 67.8247L346.324 70.3941C348.354 69.1706 350.535 68.5634 352.897 68.5634V65.5634ZM344.781 67.8216C342.329 69.2859 340.354 71.281 338.866 73.7833L341.445 75.3165C342.685 73.2309 344.307 71.5989 346.319 70.3972L344.781 67.8216ZM338.863 73.7886C337.384 76.2994 336.656 79.1077 336.656 82.1759H339.656C339.656 79.6021 340.261 77.3264 341.448 75.3112L338.863 73.7886ZM336.656 82.1759V109.657H339.656V82.1759H336.656ZM338.156 108.157H330.251V111.157H338.156V108.157ZM418.813 106.635L418.694 108.13L418.697 108.13L418.813 106.635ZM428.532 109.518L427.722 110.78L427.731 110.786L427.74 110.792L428.532 109.518ZM426.253 126.955L425.465 125.68L426.253 126.955ZM389.89 127.281L390.637 125.98L390.629 125.975L389.89 127.281ZM384.31 114.679L382.887 114.205L382.878 114.233L382.87 114.261L384.31 114.679ZM385.333 112.401L385.553 110.917L384.587 110.774L384.065 111.6L385.333 112.401ZM392.866 113.517L394.079 114.399L395.536 112.396L393.086 112.033L392.866 113.517ZM392.122 115.051L390.713 114.539L390.699 114.576L390.687 114.615L392.122 115.051ZM396.028 122.724L396.54 121.314L396.533 121.311L396.526 121.309L396.028 122.724ZM420.813 122.491L421.408 123.869L421.408 123.869L420.813 122.491ZM422.347 113.935L422.766 112.495L422.758 112.493L422.749 112.49L422.347 113.935ZM416.116 112.959L416.229 111.463L416.227 111.463L416.116 112.959ZM397.33 111.564L397.212 113.059L397.219 113.06L397.33 111.564ZM389.658 108.681L388.671 109.811L388.681 109.819L388.691 109.827L389.658 108.681ZM388.402 97.2419L387.172 96.3833L387.169 96.3881L388.402 97.2419ZM391.843 93.7544L392.61 95.0437L394.383 93.9894L392.834 92.6277L391.843 93.7544ZM388.449 69.3419L387.17 68.5587L387.167 68.5624L388.449 69.3419ZM396.168 62.1809L396.869 63.5072L396.878 63.502L396.168 62.1809ZM417.93 61.7624L417.253 63.1012L417.259 63.1041L417.93 61.7624ZM424.765 67.1099L423.572 68.0184L425.785 70.9255L426.253 67.3022L424.765 67.1099ZM425.649 60.2744V58.7744H424.33L424.161 60.0821L425.649 60.2744ZM433.089 60.2744L434.571 60.5084L434.844 58.7744H433.089V60.2744ZM430.02 79.7114L428.538 79.4775L428.537 79.4833L430.02 79.7114ZM426.532 89.5694L427.815 90.3472L427.819 90.3412L426.532 89.5694ZM419.278 96.5444L420.012 97.8525L420.017 97.85L419.278 96.5444ZM397.144 97.0559L397.734 95.6765L396.937 95.3363L396.244 95.8559L397.144 97.0559ZM395.424 98.7764L394.237 97.8592L394.224 97.8765L394.211 97.8942L395.424 98.7764ZM396.028 103.845L395.072 105.001L395.084 105.01L395.096 105.02L396.028 103.845ZM401.376 105.24L401.254 106.735L401.256 106.735L401.376 105.24ZM418.534 88.7324L417.559 87.5925L417.552 87.5984L418.534 88.7324ZM397.516 70.1324L398.503 71.2621L398.503 71.2621L397.516 70.1324ZM397.33 88.7324L396.347 89.8655L396.355 89.8723L397.33 88.7324ZM418.697 108.13C422.497 108.427 425.477 109.339 427.722 110.78L429.342 108.256C426.565 106.473 423.066 105.463 418.93 105.139L418.697 108.13ZM427.74 110.792C429.752 112.043 430.845 114.075 430.845 117.237H433.845C433.845 113.269 432.396 110.155 429.324 108.244L427.74 110.792ZM430.845 117.237C430.845 120.573 429.188 123.377 425.465 125.68L427.042 128.231C431.441 125.512 433.845 121.837 433.845 117.237H430.845ZM425.465 125.68C421.758 127.971 415.896 129.222 407.653 129.222V132.222C416.089 132.222 422.626 130.962 427.042 128.231L425.465 125.68ZM407.653 129.222C399.911 129.222 394.301 128.082 390.637 125.98L389.144 128.582C393.478 131.068 399.71 132.222 407.653 132.222V129.222ZM390.629 125.975C387.007 123.925 385.392 121.277 385.392 117.981H382.392C382.392 122.558 384.776 126.11 389.152 128.586L390.629 125.975ZM385.392 117.981C385.392 116.85 385.519 115.895 385.751 115.098L382.87 114.261C382.543 115.386 382.392 116.632 382.392 117.981H385.392ZM385.733 115.154C386.019 114.296 386.314 113.657 386.602 113.202L384.065 111.6C383.608 112.323 383.221 113.203 382.887 114.205L385.733 115.154ZM385.114 113.885L392.647 115.001L393.086 112.033L385.553 110.917L385.114 113.885ZM391.653 112.635C391.284 113.142 390.979 113.805 390.713 114.539L393.532 115.564C393.761 114.934 393.952 114.574 394.079 114.399L391.653 112.635ZM390.687 114.615C390.418 115.499 390.297 116.473 390.297 117.516H393.297C393.297 116.699 393.393 116.03 393.557 115.488L390.687 114.615ZM390.297 117.516C390.297 119.061 390.744 120.459 391.691 121.624C392.62 122.768 393.945 123.581 395.531 124.139L396.526 121.309C395.291 120.875 394.5 120.324 394.019 119.732C393.555 119.161 393.297 118.451 393.297 117.516H390.297ZM395.517 124.134C398.579 125.245 402.781 125.758 408.025 125.758V122.758C402.915 122.758 399.119 122.249 396.54 121.314L395.517 124.134ZM408.025 125.758C413.869 125.758 418.387 125.173 421.408 123.869L420.218 121.114C417.783 122.166 413.775 122.758 408.025 122.758V125.758ZM421.408 123.869C424.384 122.583 426.405 120.586 426.405 117.702H423.405C423.405 118.848 422.698 120.044 420.218 121.114L421.408 123.869ZM426.405 117.702C426.405 116.491 426.149 115.352 425.506 114.406C424.852 113.442 423.894 112.823 422.766 112.495L421.928 115.376C422.506 115.544 422.827 115.8 423.025 116.092C423.235 116.401 423.405 116.898 423.405 117.702H426.405ZM422.749 112.49C420.949 111.99 418.768 111.654 416.229 111.463L416.004 114.455C418.424 114.636 420.397 114.951 421.946 115.381L422.749 112.49ZM416.227 111.463L397.441 110.068L397.219 113.06L416.005 114.455L416.227 111.463ZM397.449 110.069C394.563 109.84 392.323 108.967 390.625 107.534L388.691 109.827C390.961 111.743 393.835 112.792 397.212 113.059L397.449 110.069ZM390.644 107.551C388.991 106.108 388.228 104.447 388.228 102.496H385.228C385.228 105.382 386.419 107.844 388.671 109.811L390.644 107.551ZM388.228 102.496C388.228 100.922 388.687 99.4667 389.636 98.0957L387.169 96.3881C385.886 98.2411 385.228 100.289 385.228 102.496H388.228ZM389.632 98.1005C390.713 96.5527 391.715 95.5761 392.61 95.0437L391.077 92.4651C389.678 93.2967 388.386 94.6452 387.172 96.3833L389.632 98.1005ZM392.834 92.6277C389.094 89.3415 387.205 85.0235 387.205 79.5254H384.205C384.205 85.8073 386.409 90.9753 390.853 94.8812L392.834 92.6277ZM387.205 79.5254C387.205 75.9971 388.055 72.876 389.73 70.1214L387.167 68.5624C385.185 71.8219 384.205 75.4898 384.205 79.5254H387.205ZM389.728 70.1251C391.441 67.327 393.81 65.1231 396.869 63.5072L395.467 60.8546C391.954 62.7107 389.176 65.2808 387.17 68.5587L389.728 70.1251ZM396.878 63.502C399.917 61.8678 403.434 61.0304 407.467 61.0304V58.0304C403.007 58.0304 398.99 58.96 395.457 60.8598L396.878 63.502ZM407.467 61.0304C411.314 61.0304 414.56 61.7401 417.253 63.1012L418.606 60.4236C415.41 58.8087 411.681 58.0304 407.467 58.0304V61.0304ZM417.259 63.1041C420.085 64.5168 422.162 66.1669 423.572 68.0184L425.959 66.2014C424.206 63.8989 421.727 61.984 418.601 60.4208L417.259 63.1041ZM426.253 67.3022L427.136 60.4667L424.161 60.0821L423.278 66.9176L426.253 67.3022ZM425.649 61.7744H433.089V58.7744H425.649V61.7744ZM431.607 60.0405L428.538 79.4775L431.502 79.9454L434.571 60.5084L431.607 60.0405ZM428.537 79.4833C428.007 82.9314 426.906 86.0306 425.246 88.7977L427.819 90.3412C429.692 87.2182 430.917 83.7454 431.502 79.9395L428.537 79.4833ZM425.25 88.7917C423.621 91.4782 421.393 93.6247 418.54 95.2388L420.017 97.85C423.301 95.9921 425.91 93.4886 427.815 90.3472L425.25 88.7917ZM418.544 95.2363C415.786 96.7841 412.29 97.6019 407.979 97.6019V100.602C412.658 100.602 416.694 99.7147 420.012 97.8525L418.544 95.2363ZM407.979 97.6019C404.119 97.6019 400.713 96.9492 397.734 95.6765L396.555 98.4353C399.962 99.8906 403.779 100.602 407.979 100.602V97.6019ZM396.244 95.8559C395.505 96.4103 394.837 97.0823 394.237 97.8592L396.611 99.6936C397.064 99.1065 397.544 98.6315 398.044 98.2559L396.244 95.8559ZM394.211 97.8942C393.538 98.8199 393.18 99.8701 393.18 101.008H396.18C396.18 100.535 396.318 100.097 396.637 99.6587L394.211 97.8942ZM393.18 101.008C393.18 102.611 393.836 103.977 395.072 105.001L396.985 102.689C396.423 102.225 396.18 101.7 396.18 101.008H393.18ZM395.096 105.02C395.778 105.561 396.676 105.923 397.661 106.18C398.665 106.442 399.87 106.622 401.254 106.735L401.498 103.745C400.216 103.641 399.197 103.48 398.418 103.277C397.621 103.069 397.177 102.842 396.96 102.67L395.096 105.02ZM401.256 106.735L418.694 108.13L418.933 105.14L401.495 103.745L401.256 106.735ZM407.932 93.5339C412.693 93.5339 416.62 92.3745 419.516 89.8664L417.552 87.5984C415.365 89.4923 412.224 90.5339 407.932 90.5339V93.5339ZM419.509 89.8723C422.482 87.3293 423.894 83.7428 423.894 79.3394H420.894C420.894 83.058 419.733 85.7335 417.559 87.5926L419.509 89.8723ZM423.894 79.3394C423.894 75.0689 422.469 71.5379 419.533 68.9198L417.536 71.159C419.746 73.1289 420.894 75.7979 420.894 79.3394H423.894ZM419.533 68.9198C416.612 66.3156 412.7 65.0984 407.979 65.0984V68.0984C412.186 68.0984 415.311 69.1752 417.536 71.159L419.533 68.9198ZM407.979 65.0984C403.412 65.0984 399.551 66.3633 396.53 69.0027L398.503 71.2621C400.876 69.1895 403.99 68.0984 407.979 68.0984V65.0984ZM396.53 69.0027C393.477 71.6689 391.971 75.211 391.971 79.4789H394.971C394.971 75.9968 396.161 73.3079 398.503 71.2621L396.53 69.0027ZM391.971 79.4789C391.971 83.7756 393.393 87.3028 396.347 89.8655L398.313 87.5993C396.121 85.698 394.971 83.0562 394.971 79.4789H391.971ZM396.355 89.8723C399.278 92.3726 403.198 93.5339 407.932 93.5339V90.5339C403.676 90.5339 400.529 89.4943 398.305 87.5926L396.355 89.8723ZM444.563 47.7194L443.63 48.8941L443.649 48.9091L443.668 48.9235L444.563 47.7194ZM444.563 41.0234L445.474 42.215L445.479 42.2111L444.563 41.0234ZM452.142 41.0234L451.209 42.1981L451.22 42.2066L451.231 42.2149L452.142 41.0234ZM452.142 47.7194L453.053 48.911L453.064 48.9026L453.075 48.8941L452.142 47.7194ZM444.423 109.657H442.923V111.157H444.423V109.657ZM444.423 60.2744V58.7744H442.923V60.2744H444.423ZM452.235 60.2744H453.735V58.7744H452.235V60.2744ZM452.235 109.657V111.157H453.735V109.657H452.235ZM448.376 47.4284C447.214 47.4284 446.263 47.1139 445.457 46.5153L443.668 48.9235C445.032 49.937 446.623 50.4284 448.376 50.4284V47.4284ZM445.496 46.5447C444.824 46.0113 444.482 45.3248 444.482 44.3249H441.482C441.482 46.1771 442.194 47.7535 443.63 48.8941L445.496 46.5447ZM444.482 44.3249C444.482 43.3692 444.813 42.7206 445.474 42.2149L443.652 39.8319C442.205 40.9382 441.482 42.4906 441.482 44.3249H444.482ZM445.479 42.2111C446.284 41.5899 447.228 41.2679 448.376 41.2679V38.2679C446.61 38.2679 445.011 38.783 443.647 39.8357L445.479 42.2111ZM448.376 41.2679C449.524 41.2679 450.443 41.5896 451.209 42.1981L453.075 39.8487C451.733 38.7832 450.142 38.2679 448.376 38.2679V41.2679ZM451.231 42.2149C451.892 42.7206 452.223 43.3692 452.223 44.3249H455.223C455.223 42.4906 454.5 40.9382 453.053 39.8319L451.231 42.2149ZM452.223 44.3249C452.223 45.3248 451.881 46.0113 451.209 46.5447L453.075 48.8941C454.511 47.7535 455.223 46.1771 455.223 44.3249H452.223ZM451.231 46.5279C450.465 47.114 449.538 47.4284 448.376 47.4284V50.4284C450.128 50.4284 451.712 49.9368 453.053 48.911L451.231 46.5279ZM445.923 109.657V60.2744H442.923V109.657H445.923ZM444.423 61.7744H452.235V58.7744H444.423V61.7744ZM450.735 60.2744V109.657H453.735V60.2744H450.735ZM452.235 108.157H444.423V111.157H452.235V108.157ZM466.936 109.657H465.436V111.157H466.936V109.657ZM466.936 60.2744V58.7744H465.436V60.2744H466.936ZM474.841 60.2744H476.341V58.7744H474.841V60.2744ZM474.841 67.5284H473.341V71.8693L476.021 68.4545L474.841 67.5284ZM482.002 61.7159L482.673 63.0576L482.678 63.0547L482.002 61.7159ZM504.973 64.3664L503.947 65.461L503.952 65.4656L504.973 64.3664ZM510.181 109.657V111.157H511.681V109.657H510.181ZM502.276 109.657H500.776V111.157H502.276V109.657ZM499.3 70.5509L498.151 71.5157L498.159 71.5246L499.3 70.5509ZM482.234 69.1094L483.003 70.3972L483.009 70.3941L482.234 69.1094ZM476.84 74.5499L475.551 73.7833L475.548 73.7886L476.84 74.5499ZM474.841 109.657V111.157H476.341V109.657H474.841ZM468.436 109.657V60.2744H465.436V109.657H468.436ZM466.936 61.7744H474.841V58.7744H466.936V61.7744ZM473.341 60.2744V67.5284H476.341V60.2744H473.341ZM476.021 68.4545C477.802 66.1843 480.014 64.3869 482.673 63.0576L481.331 60.3743C478.286 61.897 475.723 63.9746 473.661 66.6023L476.021 68.4545ZM482.678 63.0547C485.35 61.7045 488.187 61.0304 491.209 61.0304V58.0304C487.721 58.0304 484.42 58.8133 481.325 60.3772L482.678 63.0547ZM491.209 61.0304C496.65 61.0304 500.842 62.5514 503.947 65.461L505.998 63.2718C502.222 59.7334 497.238 58.0304 491.209 58.0304V61.0304ZM503.952 65.4656C507.057 68.3487 508.681 72.3795 508.681 77.7584H511.681C511.681 71.7293 509.833 66.8321 505.993 63.2672L503.952 65.4656ZM508.681 77.7584V109.657H511.681V77.7584H508.681ZM510.181 108.157H502.276V111.157H510.181V108.157ZM503.776 109.657V79.8509H500.776V109.657H503.776ZM503.776 79.8509C503.776 75.7172 502.713 72.2401 500.441 69.5772L498.159 71.5246C499.854 73.5117 500.776 76.2347 500.776 79.8509H503.776ZM500.448 69.5861C498.093 66.7826 494.329 65.5634 489.581 65.5634V68.5634C493.886 68.5634 496.6 69.6692 498.151 71.5157L500.448 69.5861ZM489.581 65.5634C486.673 65.5634 483.956 66.3203 481.46 67.8247L483.009 70.3941C485.039 69.1706 487.22 68.5634 489.581 68.5634V65.5634ZM481.465 67.8216C479.013 69.2859 477.039 71.281 475.551 73.7833L478.13 75.3165C479.37 73.2309 480.991 71.5989 483.003 70.3972L481.465 67.8216ZM475.548 73.7886C474.069 76.2994 473.341 79.1077 473.341 82.1759H476.341C476.341 79.6021 476.946 77.3264 478.133 75.3112L475.548 73.7886ZM473.341 82.1759V109.657H476.341V82.1759H473.341ZM474.841 108.157H466.936V111.157H474.841V108.157ZM571.029 94.1264L572.524 94.2495L572.658 92.6264H571.029V94.1264ZM567.913 101.892L566.703 101.006L566.701 101.009L567.913 101.892ZM560.008 108.169L560.655 109.523L560.665 109.518L560.008 108.169ZM534.201 107.379L534.947 106.078L534.947 106.078L534.201 107.379ZM525.273 98.3579L523.962 99.0873L523.967 99.0953L525.273 98.3579ZM525.319 71.8064L526.623 72.5483L526.626 72.5438L525.319 71.8064ZM534.294 62.7854L535.036 64.0891L535.036 64.0891L534.294 62.7854ZM560.334 62.7854L559.569 64.0755L559.569 64.0755L560.334 62.7854ZM568.797 71.7134L567.469 72.4102L567.471 72.4147L568.797 71.7134ZM571.726 86.5004L573.225 86.5581L573.225 86.5581L571.726 86.5004ZM571.587 88.1279V89.6279H572.79L573.051 88.4533L571.587 88.1279ZM529.923 88.1279V86.6279H528.226L528.434 88.3116L529.923 88.1279ZM535.456 99.3344L536.441 98.2027L536.441 98.2027L535.456 99.3344ZM556.149 101.985L556.726 103.37L556.734 103.366L556.742 103.363L556.149 101.985ZM561.171 98.4044L560.002 97.4643L559.996 97.4721L559.99 97.4799L561.171 98.4044ZM563.124 94.1264V92.6264H561.778L561.633 93.9643L563.124 94.1264ZM535.828 70.5509L536.774 71.7155L536.781 71.7098L535.828 70.5509ZM530.062 81.0599L528.581 80.8233L528.304 82.5599H530.062V81.0599ZM563.263 81.0599V82.5599H564.873L564.76 80.9547L563.263 81.0599ZM558.846 70.9229L557.756 71.9532L557.761 71.9592L558.846 70.9229ZM569.534 94.0033C569.344 96.314 568.431 98.6442 566.703 101.006L569.124 102.778C571.116 100.056 572.28 97.2088 572.524 94.2495L569.534 94.0033ZM566.701 101.009C565.046 103.28 562.623 105.229 559.352 106.821L560.665 109.518C564.276 107.761 567.123 105.525 569.126 102.775L566.701 101.009ZM559.362 106.816C556.176 108.337 552.18 109.134 547.314 109.134V112.134C552.492 112.134 556.959 111.288 560.655 109.523L559.362 106.816ZM547.314 109.134C542.579 109.134 538.472 108.1 534.947 106.078L533.454 108.68C537.493 110.997 542.129 112.134 547.314 112.134V109.134ZM534.947 106.078C531.402 104.044 528.618 101.233 526.579 97.6205L523.967 99.0953C526.268 103.171 529.436 106.374 533.454 108.68L534.947 106.078ZM526.584 97.6285C524.585 94.0362 523.564 89.876 523.564 85.1054H520.564C520.564 90.3168 521.683 94.9916 523.962 99.0873L526.584 97.6285ZM523.564 85.1054C523.564 80.2726 524.6 76.1029 526.623 72.5483L524.016 71.0645C521.699 75.136 520.564 79.8322 520.564 85.1054H523.564ZM526.626 72.5438C528.663 68.9346 531.46 66.124 535.036 64.0891L533.552 61.4817C529.502 63.7868 526.316 66.9902 524.013 71.069L526.626 72.5438ZM535.036 64.0891C538.597 62.0622 542.692 61.0304 547.36 61.0304V58.0304C542.233 58.0304 537.617 59.1686 533.552 61.4817L535.036 64.0891ZM547.36 61.0304C552.129 61.0304 556.18 62.0651 559.569 64.0755L561.099 61.4953C557.172 59.1657 552.574 58.0304 547.36 58.0304V61.0304ZM559.569 64.0755C562.987 66.1031 565.613 68.8732 567.469 72.4102L570.125 71.0166C568.013 66.9896 564.997 63.8077 561.099 61.4953L559.569 64.0755ZM567.471 72.4147C569.326 75.9225 570.273 79.9542 570.273 84.5474H573.273C573.273 79.5307 572.236 75.0064 570.123 71.0121L567.471 72.4147ZM570.273 84.5474C570.273 85.0161 570.258 85.6457 570.228 86.4428L573.225 86.5581C573.257 85.7431 573.273 85.0707 573.273 84.5474H570.273ZM570.228 86.4428C570.196 87.2656 570.151 87.6758 570.123 87.8025L573.051 88.4533C573.147 88.022 573.195 87.3472 573.225 86.5581L570.228 86.4428ZM571.587 86.6279H529.923V89.6279H571.587V86.6279ZM528.434 88.3116C529.06 93.3864 531.046 97.4854 534.472 100.466L536.441 98.2027C533.667 95.7894 531.964 92.4174 531.412 87.9442L528.434 88.3116ZM534.472 100.466C537.899 103.447 542.303 104.88 547.546 104.88V101.88C542.87 101.88 539.214 100.615 536.441 98.2027L534.472 100.466ZM547.546 104.88C551.166 104.88 554.248 104.402 556.726 103.37L555.572 100.6C553.585 101.428 550.933 101.88 547.546 101.88V104.88ZM556.742 103.363C559.129 102.335 561.037 101.009 562.352 99.3289L559.99 97.4799C559.073 98.6518 557.633 99.713 555.556 100.607L556.742 103.363ZM562.34 99.3445C563.617 97.7563 564.422 96.0683 564.615 94.2885L561.633 93.9643C561.516 95.0366 561.019 96.2005 560.002 97.4643L562.34 99.3445ZM563.124 95.6264H571.029V92.6264H563.124V95.6264ZM547.453 65.1914C542.538 65.1914 538.313 66.568 534.876 69.392L536.781 71.7098C539.606 69.3879 543.13 68.1914 547.453 68.1914V65.1914ZM534.883 69.3864C531.43 72.1898 529.345 76.042 528.581 80.8233L531.544 81.2965C532.206 77.1498 533.965 73.9961 536.774 71.7154L534.883 69.3864ZM530.062 82.5599H563.263V79.5599H530.062V82.5599ZM564.76 80.9547C564.457 76.6495 562.846 72.9378 559.93 69.8866L557.761 71.9592C560.178 74.488 561.512 77.5343 561.767 81.1651L564.76 80.9547ZM559.936 69.8926C556.915 66.6956 552.677 65.1914 547.453 65.1914V68.1914C552.088 68.1914 555.445 69.5082 557.756 71.9532L559.936 69.8926Z" fill="black"/>
<path d="M584 9V15M581.5 9H586.5H581.5Z" stroke="black" stroke-width="2" stroke-linecap="round" stroke-linejoin="round"/>
<path d="M590 15V9L593 13L596 9V15" stroke="black" stroke-width="2" stroke-linecap="round" stroke-linejoin="round"/>
</svg>
