<svg width="100" height="100" viewBox="0 0 32 32" fill="none" xmlns="http://www.w3.org/2000/svg">
<path d="M9 16C8.73478 16 8.48043 16.1054 8.29289 16.2929C8.10536 16.4804 8 16.7348 8 17V22C8 22.2652 8.10536 22.5196 8.29289 22.7071C8.48043 22.8946 8.73478 23 9 23C9.26522 23 9.51957 22.8946 9.70711 22.7071C9.89464 22.5196 10 22.2652 10 22V21H10.5C11.163 21 11.7989 20.7366 12.2678 20.2678C12.7366 19.7989 13 19.163 13 18.5C13 17.837 12.7366 17.2011 12.2678 16.7322C11.7989 16.2634 11.163 16 10.5 16H9ZM10.5 19H10V18H10.5C10.6326 18 10.7598 18.0527 10.8536 18.1464C10.9473 18.2402 11 18.3674 11 18.5C11 18.6326 10.9473 18.7598 10.8536 18.8536C10.7598 18.9473 10.6326 19 10.5 19ZM14 17C14 16.7348 14.1054 16.4804 14.2929 16.2929C14.4804 16.1054 14.7348 16 15 16H15.5C16.4283 16 17.3185 16.3687 17.9749 17.0251C18.6313 17.6815 19 18.5717 19 19.5C19 20.4283 18.6313 21.3185 17.9749 21.9749C17.3185 22.6313 16.4283 23 15.5 23H15C14.7348 23 14.4804 22.8946 14.2929 22.7071C14.1054 22.5196 14 22.2652 14 22V17ZM16 20.915C16.293 20.8119 16.5468 20.6204 16.7263 20.367C16.9058 20.1135 17.0022 19.8106 17.0022 19.5C17.0022 19.1894 16.9058 18.8865 16.7263 18.633C16.5468 18.3796 16.293 18.1881 16 18.085V20.915ZM20 22V17C20 16.7348 20.1054 16.4804 20.2929 16.2929C20.4804 16.1054 20.7348 16 21 16H24C24.2652 16 24.5196 16.1054 24.7071 16.2929C24.8946 16.4804 25 16.7348 25 17C25 17.2652 24.8946 17.5196 24.7071 17.7071C24.5196 17.8946 24.2652 18 24 18H22V19H24C24.2652 19 24.5196 19.1054 24.7071 19.2929C24.8946 19.4804 25 19.7348 25 20C25 20.2652 24.8946 20.5196 24.7071 20.7071C24.5196 20.8946 24.2652 21 24 21H22V22C22 22.2652 21.8946 22.5196 21.7071 22.7071C21.5196 22.8946 21.2652 23 21 23C20.7348 23 20.4804 22.8946 20.2929 22.7071C20.1054 22.5196 20 22.2652 20 22ZM17 9V2H8C7.20435 2 6.44129 2.31607 5.87868 2.87868C5.31607 3.44129 5 4.20435 5 5V13C4.46957 13 3.96086 13.2107 3.58579 13.5858C3.21071 13.9609 3 14.4696 3 15V24C3 24.5304 3.21071 25.0391 3.58579 25.4142C3.96086 25.7893 4.46957 26 5 26V27C5 27.7956 5.31607 28.5587 5.87868 29.1213C6.44129 29.6839 7.20435 30 8 30H24C24.7956 30 25.5587 29.6839 26.1213 29.1213C26.6839 28.5587 27 27.7956 27 27V26C27.5304 26 28.0391 25.7893 28.4142 25.4142C28.7893 25.0391 29 24.5304 29 24V15C29 14.4696 28.7893 13.9609 28.4142 13.5858C28.0391 13.2107 27.5304 13 27 13V12H20C19.2044 12 18.4413 11.6839 17.8787 11.1213C17.3161 10.5587 17 9.79565 17 9ZM27 15V24H5V15H27ZM19 9V2.117C19.4886 2.25735 19.9335 2.51955 20.293 2.879L26.121 8.707C26.4804 9.06648 26.7427 9.5114 26.883 10H20C19.7348 10 19.4804 9.89464 19.2929 9.70711C19.1054 9.51957 19 9.26522 19 9Z" fill="black"/>
</svg>
