<svg width="100" height="100" viewBox="0 0 24 24" fill="none" xmlns="http://www.w3.org/2000/svg">
<g clip-path="url(#clip0)">
<path fill-rule="evenodd" clip-rule="evenodd" d="M7.99995 8H3.19995V16H4.79995V14.4H7.99995C8.84864 14.4 9.66258 14.0629 10.2627 13.4627C10.8628 12.8626 11.2 12.0487 11.2 11.2C11.2 10.3513 10.8628 9.53737 10.2627 8.93726C9.66258 8.33714 8.84864 8 7.99995 8V8ZM7.99995 12.8H4.79995V9.6H7.99995C8.4243 9.6 8.83126 9.76857 9.13132 10.0686C9.43138 10.3687 9.59995 10.7757 9.59995 11.2C9.59995 11.6243 9.43138 12.0313 9.13132 12.3314C8.83126 12.6314 8.4243 12.8 7.99995 12.8Z" fill="black"/>
<path fill-rule="evenodd" clip-rule="evenodd" d="M12 2.6716e-06C10.1368 -0.0012413 8.29905 0.431954 6.63259 1.26518C4.96613 2.09842 3.5169 3.30873 2.4 4.8C1.76348 4.8 1.15303 5.05286 0.702944 5.50295C0.252856 5.95303 0 6.56348 0 7.2L0 16.8C0 17.4365 0.252856 18.047 0.702944 18.4971C1.15303 18.9471 1.76348 19.2 2.4 19.2C3.62729 20.8364 5.2525 22.1319 7.1213 22.9635C8.9901 23.7951 11.0405 24.1352 13.0777 23.9515C15.1149 23.7678 17.0713 23.0664 18.7612 21.9139C20.4511 20.7614 21.8184 19.1961 22.7331 17.3666C23.6479 15.537 24.0798 13.504 23.9879 11.4606C23.8959 9.41721 23.2832 7.43122 22.2078 5.69123C21.1324 3.95124 19.6301 2.51502 17.8436 1.51894C16.057 0.522866 14.0455 2.6716e-06 12 2.6716e-06V2.6716e-06ZM1.6 7.2C1.6 6.98783 1.68429 6.78435 1.83431 6.63432C1.98434 6.48429 2.18783 6.4 2.4 6.4H12C12.2086 6.39993 12.409 6.48136 12.5585 6.62692C12.7079 6.77248 12.7946 6.97066 12.8 7.1792V16.8208C12.7946 17.0294 12.7079 17.2275 12.5585 17.3731C12.409 17.5186 12.2086 17.6001 12 17.6H2.4C2.18783 17.6 1.98434 17.5157 1.83431 17.3657C1.68429 17.2157 1.6 17.0122 1.6 16.8V7.2Z" fill="black"/>
</g>
<defs>
<clipPath id="clip0">
<rect width="24" height="24" fill="white"/>
</clipPath>
</defs>
</svg>
