<svg width="64" height="64" viewBox="0 0 64 64" fill="none" xmlns="http://www.w3.org/2000/svg">
<path d="M21.3334 32L29.3334 40L42.6667 26.6666" stroke="#0FA958" stroke-width="5.25" stroke-linecap="round" stroke-linejoin="round"/>
<path d="M8 32C8 28.8483 8.62078 25.7274 9.82689 22.8156C11.033 19.9038 12.8008 17.258 15.0294 15.0294C17.258 12.8008 19.9038 11.033 22.8156 9.82689C25.7274 8.62078 28.8483 8 32 8C35.1517 8 38.2726 8.62078 41.1844 9.82689C44.0962 11.033 46.742 12.8008 48.9706 15.0294C51.1992 17.258 52.967 19.9038 54.1731 22.8156C55.3792 25.7274 56 28.8483 56 32C56 38.3652 53.4714 44.4697 48.9706 48.9706C44.4697 53.4714 38.3652 56 32 56C25.6348 56 19.5303 53.4714 15.0294 48.9706C10.5286 44.4697 8 38.3652 8 32V32Z" stroke="#0FA958" stroke-width="5.25" stroke-linecap="round"/>
</svg>
