<svg width="300" height="66" viewBox="0 0 300 66" fill="none" xmlns="http://www.w3.org/2000/svg">
<rect width="123.288" height="65.7534" rx="3.875" fill="#003CB0"/>
<path d="M33.1144 49H24.8374L25.8604 43.0945H12.6544L14.5609 32.353L27.7204 16.45H36.5554L23.1169 33.7015L22.6519 36.3985H27.6274L28.7899 30.028H36.4624L35.2999 36.3985H39.9034L38.7409 43.0945H34.1374L33.1144 49ZM60.1806 15.1945C67.4966 15.1945 71.1546 18.4805 71.1546 25.0525C71.1546 26.2615 71.0306 27.5945 70.7826 29.0515L69.6666 35.5615C68.8606 40.3045 67.1866 43.8385 64.6446 46.1635C62.1336 48.4885 58.6306 49.651 54.1356 49.651C49.6716 49.651 46.5871 48.504 44.8821 46.21C43.7351 44.629 43.1616 42.49 43.1616 39.793C43.1616 38.491 43.2856 37.0805 43.5336 35.5615L44.6496 29.0515C46.2616 19.8135 51.4386 15.1945 60.1806 15.1945ZM51.6246 38.3515C51.6246 41.0795 52.8801 42.4435 55.3911 42.4435C56.9411 42.4435 58.1966 41.932 59.1576 40.909C60.1496 39.886 60.8781 38.0415 61.3431 35.3755L62.4126 29.2375C62.5986 28.2145 62.6916 27.331 62.6916 26.587C62.6916 23.797 61.4516 22.402 58.9716 22.402C55.8096 22.464 53.8256 24.7425 53.0196 29.2375L51.9036 35.3755C51.7176 36.5225 51.6246 37.5145 51.6246 38.3515ZM92.7833 49H84.5063L85.5293 43.0945H72.3233L74.2298 32.353L87.3893 16.45H96.2243L82.7858 33.7015L82.3208 36.3985H87.2963L88.4588 30.028H96.1313L94.9688 36.3985H99.5723L98.4098 43.0945H93.8063L92.7833 49Z" fill="white"/>
<path d="M33.1144 49V50.9375H34.7451L35.0234 49.3307L33.1144 49ZM24.8374 49L22.9283 48.6693L22.5354 50.9375H24.8374V49ZM25.8604 43.0945L27.7694 43.4252L28.1623 41.157H25.8604V43.0945ZM12.6544 43.0945L10.7467 42.7559L10.3427 45.032H12.6544V43.0945ZM14.5609 32.353L13.0681 31.1178L12.7425 31.5114L12.6532 32.0144L14.5609 32.353ZM27.7204 16.45V14.5125H26.8088L26.2276 15.2148L27.7204 16.45ZM36.5554 16.45L38.0838 17.6406L40.5206 14.5125H36.5554V16.45ZM23.1169 33.7015L21.5884 32.5108L21.29 32.8939L21.2075 33.3723L23.1169 33.7015ZM22.6519 36.3985L20.7425 36.0693L20.3517 38.336H22.6519V36.3985ZM27.6274 36.3985V38.336H29.2433L29.5334 36.7463L27.6274 36.3985ZM28.7899 30.028V28.0905H27.1739L26.8838 29.6802L28.7899 30.028ZM36.4624 30.028L38.3684 30.3758L38.7854 28.0905H36.4624V30.028ZM35.2999 36.3985L33.3938 36.0507L32.9768 38.336H35.2999V36.3985ZM39.9034 36.3985L41.8123 36.7299L42.2062 34.461H39.9034V36.3985ZM38.7409 43.0945V45.032H40.371L40.6498 43.4259L38.7409 43.0945ZM34.1374 43.0945V41.157H32.5066L32.2283 42.7638L34.1374 43.0945ZM33.1144 47.0625H24.8374V50.9375H33.1144V47.0625ZM26.7464 49.3307L27.7694 43.4252L23.9513 42.7638L22.9283 48.6693L26.7464 49.3307ZM25.8604 41.157H12.6544V45.032H25.8604V41.157ZM14.562 43.4331L16.4685 32.6916L12.6532 32.0144L10.7467 42.7559L14.562 43.4331ZM16.0536 33.5882L29.2131 17.6852L26.2276 15.2148L13.0681 31.1178L16.0536 33.5882ZM27.7204 18.3875H36.5554V14.5125H27.7204V18.3875ZM35.0269 15.2593L21.5884 32.5108L24.6453 34.8921L38.0838 17.6406L35.0269 15.2593ZM21.2075 33.3723L20.7425 36.0693L24.5612 36.7277L25.0262 34.0307L21.2075 33.3723ZM22.6519 38.336H27.6274V34.461H22.6519V38.336ZM29.5334 36.7463L30.6959 30.3758L26.8838 29.6802L25.7213 36.0507L29.5334 36.7463ZM28.7899 31.9655H36.4624V28.0905H28.7899V31.9655ZM34.5563 29.6802L33.3938 36.0507L37.2059 36.7463L38.3684 30.3758L34.5563 29.6802ZM35.2999 38.336H39.9034V34.461H35.2999V38.336ZM37.9944 36.0671L36.8319 42.7631L40.6498 43.4259L41.8123 36.7299L37.9944 36.0671ZM38.7409 41.157H34.1374V45.032H38.7409V41.157ZM32.2283 42.7638L31.2053 48.6693L35.0234 49.3307L36.0464 43.4252L32.2283 42.7638ZM70.7826 29.0515L72.6923 29.3789L72.6927 29.3766L70.7826 29.0515ZM69.6666 35.5615L67.757 35.2341L67.7565 35.2369L69.6666 35.5615ZM64.6446 46.1635L63.337 44.7338L63.3283 44.7418L64.6446 46.1635ZM44.8821 46.21L43.3139 47.3478L43.3204 47.3568L43.3271 47.3658L44.8821 46.21ZM43.5336 35.5615L41.624 35.2341L41.6227 35.2417L41.6214 35.2493L43.5336 35.5615ZM44.6496 29.0515L42.741 28.7184L42.74 28.7241L44.6496 29.0515ZM59.1576 40.909L57.7667 39.5602L57.756 39.5712L57.7455 39.5824L59.1576 40.909ZM61.3431 35.3755L63.2518 35.7084L63.2519 35.7081L61.3431 35.3755ZM62.4126 29.2375L60.5064 28.8909L60.5051 28.8979L60.5039 28.9049L62.4126 29.2375ZM58.9716 22.402V20.4645H58.9526L58.9336 20.4649L58.9716 22.402ZM53.0196 29.2375L54.9259 29.5841L54.9267 29.5795L53.0196 29.2375ZM51.9036 35.3755L49.9974 35.0289L49.9941 35.0471L49.9911 35.0654L51.9036 35.3755ZM60.1806 17.132C63.5882 17.132 65.7821 17.9018 67.1164 19.1003C68.4111 20.2634 69.2171 22.122 69.2171 25.0525H73.0921C73.0921 21.4109 72.0691 18.3406 69.7059 16.2177C67.3822 14.1302 64.0891 13.257 60.1806 13.257V17.132ZM69.2171 25.0525C69.2171 26.1317 69.1062 27.3541 68.8726 28.7264L72.6927 29.3766C72.9551 27.8349 73.0921 26.3913 73.0921 25.0525H69.2171ZM68.873 28.7241L67.757 35.2341L71.5763 35.8889L72.6923 29.3789L68.873 28.7241ZM67.7565 35.2369C66.9946 39.7202 65.4559 42.7958 63.337 44.7338L65.9523 47.5932C68.9174 44.8812 70.7266 40.8888 71.5767 35.8861L67.7565 35.2369ZM63.3283 44.7418C61.2761 46.642 58.2996 47.7135 54.1356 47.7135V51.5885C58.9616 51.5885 62.9912 50.335 65.961 47.5852L63.3283 44.7418ZM54.1356 47.7135C49.9329 47.7135 47.6083 46.6299 46.4372 45.0542L43.3271 47.3658C45.566 50.3781 49.4103 51.5885 54.1356 51.5885V47.7135ZM46.4504 45.0722C45.6195 43.9269 45.0991 42.2333 45.0991 39.793H41.2241C41.2241 42.7467 41.8508 45.3311 43.3139 47.3478L46.4504 45.0722ZM45.0991 39.793C45.0991 38.6124 45.2117 37.3075 45.4458 35.8737L41.6214 35.2493C41.3595 36.8535 41.2241 38.3696 41.2241 39.793H45.0991ZM45.4433 35.8889L46.5593 29.3789L42.74 28.7241L41.624 35.2341L45.4433 35.8889ZM46.5583 29.3846C47.3155 25.0451 48.8666 22.0358 51.0313 20.1045C53.1796 18.1877 56.1573 17.132 60.1806 17.132V13.257C55.462 13.257 51.4802 14.5108 48.4515 17.213C45.4392 19.9006 43.5958 23.8199 42.741 28.7184L46.5583 29.3846ZM49.6871 38.3515C49.6871 39.9762 50.0576 41.556 51.1407 42.7326C52.2518 43.9397 53.7938 44.381 55.3911 44.381V40.506C54.4775 40.506 54.1362 40.2653 53.9918 40.1084C53.8194 39.921 53.5621 39.4548 53.5621 38.3515H49.6871ZM55.3911 44.381C57.4141 44.381 59.2023 43.6913 60.5698 42.2356L57.7455 39.5824C57.191 40.1727 56.4681 40.506 55.3911 40.506V44.381ZM60.5486 42.2578C61.9623 40.7998 62.771 38.465 63.2518 35.7084L59.4344 35.0426C58.9853 37.618 58.3369 38.9722 57.7667 39.5602L60.5486 42.2578ZM63.2519 35.7081L64.3214 29.5701L60.5039 28.9049L59.4344 35.0429L63.2519 35.7081ZM64.3189 29.5841C64.5182 28.488 64.6291 27.4828 64.6291 26.587H60.7541C60.7541 27.1792 60.6791 27.941 60.5064 28.8909L64.3189 29.5841ZM64.6291 26.587C64.6291 24.9459 64.2694 23.3531 63.2097 22.161C62.1114 20.9254 60.5733 20.4645 58.9716 20.4645V24.3395C59.85 24.3395 60.1718 24.576 60.3135 24.7355C60.4939 24.9383 60.7541 25.4381 60.7541 26.587H64.6291ZM58.9336 20.4649C56.8346 20.506 55.0208 21.3118 53.6509 22.885C52.3402 24.3904 51.5481 26.4666 51.1125 28.8955L54.9267 29.5795C55.2972 27.5134 55.9001 26.2029 56.5733 25.4297C57.1875 24.7244 57.9466 24.36 59.0096 24.3391L58.9336 20.4649ZM51.1134 28.8909L49.9974 35.0289L53.8099 35.7221L54.9259 29.5841L51.1134 28.8909ZM49.9911 35.0654C49.7944 36.2787 49.6871 37.3794 49.6871 38.3515H53.5621C53.5621 37.6496 53.6409 36.7663 53.8161 35.6856L49.9911 35.0654ZM92.7833 49V50.9375H94.414L94.6924 49.3307L92.7833 49ZM84.5063 49L82.5972 48.6693L82.2043 50.9375H84.5063V49ZM85.5293 43.0945L87.4384 43.4252L87.8313 41.157H85.5293V43.0945ZM72.3233 43.0945L70.4156 42.7559L70.0116 45.032H72.3233V43.0945ZM74.2298 32.353L72.7371 31.1178L72.4114 31.5114L72.3221 32.0144L74.2298 32.353ZM87.3893 16.45V14.5125H86.4777L85.8966 15.2148L87.3893 16.45ZM96.2243 16.45L97.7528 17.6406L100.19 14.5125H96.2243V16.45ZM82.7858 33.7015L81.2573 32.5108L80.959 32.8939L80.8765 33.3723L82.7858 33.7015ZM82.3208 36.3985L80.4115 36.0693L80.0207 38.336H82.3208V36.3985ZM87.2963 36.3985V38.336H88.9122L89.2023 36.7463L87.2963 36.3985ZM88.4588 30.028V28.0905H86.8429L86.5528 29.6802L88.4588 30.028ZM96.1313 30.028L98.0373 30.3758L98.4544 28.0905H96.1313V30.028ZM94.9688 36.3985L93.0628 36.0507L92.6457 38.336H94.9688V36.3985ZM99.5723 36.3985L101.481 36.7299L101.875 34.461H99.5723V36.3985ZM98.4098 43.0945V45.032H100.04L100.319 43.4259L98.4098 43.0945ZM93.8063 43.0945V41.157H92.1756L91.8972 42.7638L93.8063 43.0945ZM92.7833 47.0625H84.5063V50.9375H92.7833V47.0625ZM86.4154 49.3307L87.4384 43.4252L83.6202 42.7638L82.5972 48.6693L86.4154 49.3307ZM85.5293 41.157H72.3233V45.032H85.5293V41.157ZM74.231 43.4331L76.1375 32.6916L72.3221 32.0144L70.4156 42.7559L74.231 43.4331ZM75.7225 33.5882L88.882 17.6852L85.8966 15.2148L72.7371 31.1178L75.7225 33.5882ZM87.3893 18.3875H96.2243V14.5125H87.3893V18.3875ZM94.6958 15.2593L81.2573 32.5108L84.3143 34.8921L97.7528 17.6406L94.6958 15.2593ZM80.8765 33.3723L80.4115 36.0693L84.2301 36.7277L84.6951 34.0307L80.8765 33.3723ZM82.3208 38.336H87.2963V34.461H82.3208V38.336ZM89.2023 36.7463L90.3648 30.3758L86.5528 29.6802L85.3903 36.0507L89.2023 36.7463ZM88.4588 31.9655H96.1313V28.0905H88.4588V31.9655ZM94.2253 29.6802L93.0628 36.0507L96.8748 36.7463L98.0373 30.3758L94.2253 29.6802ZM94.9688 38.336H99.5723V34.461H94.9688V38.336ZM97.6634 36.0671L96.5009 42.7631L100.319 43.4259L101.481 36.7299L97.6634 36.0671ZM98.4098 41.157H93.8063V45.032H98.4098V41.157ZM91.8972 42.7638L90.8742 48.6693L94.6924 49.3307L95.7154 43.4252L91.8972 42.7638Z" fill="black"/>
<path d="M158.593 41.5633L160.524 41.7223L160.697 39.6258H158.593V41.5633ZM157.035 45.446L155.472 44.3019L155.469 44.3053L157.035 45.446ZM153.083 48.5848L153.918 50.3332L153.924 50.3302L153.93 50.3271L153.083 48.5848ZM140.179 48.1895L141.143 46.509L141.143 46.509L140.179 48.1895ZM135.715 43.679L134.022 44.6212L134.028 44.6315L135.715 43.679ZM135.738 30.4033L137.422 31.3616L137.426 31.3558L135.738 30.4033ZM140.226 25.8928L141.184 27.5767L141.184 27.5767L140.226 25.8928ZM153.246 25.8928L152.257 27.5592L152.257 27.5592L153.246 25.8928ZM157.477 30.3568L155.761 31.2569L155.764 31.2627L157.477 30.3568ZM158.942 37.7503L160.878 37.8248L160.878 37.8248L158.942 37.7503ZM158.872 38.564V40.5015H160.426L160.763 38.9843L158.872 38.564ZM138.04 38.564V36.6265H135.849L136.117 38.8013L138.04 38.564ZM140.807 44.1673L142.079 42.7056L142.079 42.7056L140.807 44.1673ZM151.153 45.4925L151.898 47.281L151.909 47.2766L151.919 47.2721L151.153 45.4925ZM153.664 43.7023L152.154 42.488L152.146 42.498L152.138 42.5082L153.664 43.7023ZM154.641 41.5633V39.6258H152.902L152.714 41.3539L154.641 41.5633ZM140.993 29.7755L142.214 31.2797L142.223 31.2724L140.993 29.7755ZM138.11 35.03L136.197 34.7245L135.838 36.9675H138.11V35.03ZM154.71 35.03V36.9675H156.789L156.643 34.8942L154.71 35.03ZM152.502 29.9615L151.093 31.2924L151.101 31.3001L152.502 29.9615ZM156.662 41.4043C156.588 42.3029 156.232 43.2635 155.472 44.3019L158.599 46.5902C159.699 45.0866 160.381 43.4587 160.524 41.7223L156.662 41.4043ZM155.469 44.3053C154.78 45.2517 153.736 46.1125 152.235 46.8425L153.93 50.3271C155.871 49.3831 157.462 48.1514 158.601 46.5868L155.469 44.3053ZM152.248 46.8364C150.857 47.5005 149.045 47.8795 146.736 47.8795V51.7545C149.448 51.7545 151.867 51.3121 153.918 50.3332L152.248 46.8364ZM146.736 47.8795C144.547 47.8795 142.702 47.4036 141.143 46.509L139.215 49.8701C141.438 51.1455 143.965 51.7545 146.736 51.7545V47.8795ZM141.143 46.509C139.558 45.5996 138.318 44.3493 137.402 42.7266L134.028 44.6315C135.282 46.8528 137.018 48.6095 139.215 49.8701L141.143 46.509ZM137.408 42.737C136.519 41.14 136.048 39.2636 136.048 37.0528H132.173C132.173 39.833 132.772 42.3741 134.022 44.6211L137.408 42.737ZM136.048 37.0528C136.048 34.8107 136.527 32.9343 137.422 31.3616L134.054 29.445C132.779 31.6853 132.173 34.2419 132.173 37.0528H136.048ZM137.426 31.3558C138.339 29.737 139.584 28.4872 141.184 27.5767L139.267 24.2089C137.054 25.4684 135.307 27.2255 134.051 29.4508L137.426 31.3558ZM141.184 27.5767C142.765 26.6766 144.606 26.2028 146.759 26.2028V22.3278C144.014 22.3278 141.499 22.939 139.267 24.2089L141.184 27.5767ZM146.759 26.2028C148.967 26.2028 150.776 26.6804 152.257 27.5592L154.234 24.2264C152.058 22.9352 149.541 22.3278 146.759 22.3278V26.2028ZM152.257 27.5592C153.776 28.4602 154.935 29.6823 155.761 31.2569L159.193 29.4567C158.035 27.2493 156.373 25.4954 154.234 24.2264L152.257 27.5592ZM155.764 31.2627C156.59 32.8239 157.028 34.6448 157.028 36.7738H160.903C160.903 34.0978 160.348 31.6407 159.19 29.4509L155.764 31.2627ZM157.028 36.7738C157.028 36.9865 157.021 37.2844 157.006 37.6758L160.878 37.8248C160.894 37.4102 160.903 37.0571 160.903 36.7738H157.028ZM157.006 37.6758C156.999 37.8599 156.99 37.9958 156.982 38.0905C156.978 38.1374 156.975 38.1664 156.973 38.181C156.971 38.1989 156.972 38.1823 156.981 38.1437L160.763 38.9843C160.838 38.6481 160.863 38.206 160.878 37.8248L157.006 37.6758ZM158.872 36.6265H138.04V40.5015H158.872V36.6265ZM136.117 38.8013C136.46 41.5769 137.564 43.9142 139.535 45.629L142.079 42.7056C140.95 41.7234 140.21 40.3252 139.963 38.3268L136.117 38.8013ZM139.535 45.629C141.507 47.3449 144.006 48.1275 146.852 48.1275V44.2525C144.738 44.2525 143.206 43.6867 142.079 42.7056L139.535 45.629ZM146.852 48.1275C148.754 48.1275 150.465 47.8781 151.898 47.281L150.408 43.7041C149.609 44.037 148.453 44.2525 146.852 44.2525V48.1275ZM151.919 47.2721C153.236 46.7054 154.375 45.9377 155.19 44.8964L152.138 42.5082C151.837 42.8929 151.303 43.3187 150.387 43.713L151.919 47.2721ZM155.174 44.9166C155.916 43.9941 156.44 42.9426 156.567 41.7727L152.714 41.3539C152.687 41.61 152.559 41.9845 152.154 42.488L155.174 44.9166ZM154.641 43.5008H158.593V39.6258H154.641V43.5008ZM146.805 25.9083C144.113 25.9083 141.723 26.6679 139.763 28.2786L142.223 31.2724C143.394 30.3102 144.878 29.7833 146.805 29.7833V25.9083ZM139.772 28.2714C137.79 29.88 136.619 32.0826 136.197 34.7245L140.023 35.3356C140.314 33.5135 141.064 32.2131 142.214 31.2797L139.772 28.2714ZM138.11 36.9675H154.71V33.0925H138.11V36.9675ZM156.643 34.8942C156.473 32.4746 155.558 30.3554 153.902 28.623L151.101 31.3001C152.111 32.3577 152.669 33.6175 152.778 35.1659L156.643 34.8942ZM153.91 28.6308C152.118 26.7346 149.65 25.9083 146.805 25.9083V29.7833C148.889 29.7833 150.219 30.3675 151.093 31.2923L153.91 28.6308ZM165.126 49.3288H163.188V51.2663H165.126V49.3288ZM165.126 24.6373V22.6998H163.188V24.6373H165.126ZM169.078 24.6373H171.016V22.6998H169.078V24.6373ZM169.078 28.2643H167.141V33.8713L170.602 29.4605L169.078 28.2643ZM172.659 25.358L173.525 27.091L173.533 27.0873L172.659 25.358ZM184.144 26.6833L182.819 28.0972L182.826 28.1031L184.144 26.6833ZM186.748 49.3288V51.2663H188.686V49.3288H186.748ZM182.796 49.3288H180.858V51.2663H182.796V49.3288ZM181.308 29.7755L179.824 31.0217L179.829 31.0275L179.834 31.0332L181.308 29.7755ZM172.775 29.0548L173.768 30.7182L173.775 30.7142L172.775 29.0548ZM170.078 31.775L168.412 30.7848L168.408 30.7917L170.078 31.775ZM169.078 49.3288V51.2663H171.016V49.3288H169.078ZM167.063 49.3288V24.6373H163.188V49.3288H167.063ZM165.126 26.5748H169.078V22.6998H165.126V26.5748ZM167.141 24.6373V28.2643H171.016V24.6373H167.141ZM170.602 29.4605C171.382 28.4669 172.349 27.6791 173.525 27.091L171.792 23.6251C170.116 24.463 168.696 25.6127 167.554 27.0681L170.602 29.4605ZM173.533 27.0873C174.701 26.4968 175.936 26.2028 177.262 26.2028V22.3278C175.333 22.3278 173.499 22.7623 171.785 23.6288L173.533 27.0873ZM177.262 26.2028C179.75 26.2028 181.532 26.8912 182.819 28.0972L185.469 25.2694C183.315 23.2514 180.509 22.3278 177.262 22.3278V26.2028ZM182.826 28.1031C184.088 29.2748 184.811 30.9472 184.811 33.3793H188.686C188.686 30.1074 187.673 27.3158 185.462 25.2635L182.826 28.1031ZM184.811 33.3793V49.3288H188.686V33.3793H184.811ZM186.748 47.3913H182.796V51.2663H186.748V47.3913ZM184.733 49.3288V34.4255H180.858V49.3288H184.733ZM184.733 34.4255C184.733 32.1538 184.146 30.1168 182.781 28.5179L179.834 31.0332C180.453 31.7593 180.858 32.8223 180.858 34.4255H184.733ZM182.791 28.5294C181.295 26.7487 178.998 26.0943 176.448 26.0943V29.9693C178.425 29.9693 179.367 30.4773 179.824 31.0217L182.791 28.5294ZM176.448 26.0943C174.777 26.0943 173.207 26.532 171.775 27.3954L173.775 30.7142C174.606 30.2136 175.484 29.9693 176.448 29.9693V26.0943ZM171.781 27.3914C170.381 28.2275 169.255 29.3687 168.413 30.7848L171.743 32.7653C172.265 31.8873 172.936 31.2151 173.768 30.7182L171.781 27.3914ZM168.408 30.7917C167.553 32.2432 167.141 33.8583 167.141 35.588H171.016C171.016 34.4968 171.269 33.5698 171.747 32.7584L168.408 30.7917ZM167.141 35.588V49.3288H171.016V35.588H167.141ZM169.078 47.3913H165.126V51.2663H169.078V47.3913ZM209.407 47.8175L209.252 49.7489L209.256 49.7492L209.407 47.8175ZM214.266 49.259L213.219 50.8895L213.231 50.897L213.243 50.9043L214.266 49.259ZM194.945 58.1405L195.909 56.4599L195.899 56.4543L194.945 58.1405ZM192.155 51.8398L190.317 51.2271L190.305 51.2631L190.295 51.2996L192.155 51.8398ZM192.667 50.7005L192.951 48.784L191.702 48.599L191.029 49.6659L192.667 50.7005ZM196.433 51.2585L198 52.3981L199.882 49.8108L196.717 49.342L196.433 51.2585ZM196.061 52.0258L194.24 51.3637L194.223 51.4122L194.208 51.4617L196.061 52.0258ZM198.014 55.862L198.675 54.0406L198.666 54.0374L198.657 54.0343L198.014 55.862ZM210.406 55.7458L211.175 57.5245L211.175 57.5245L210.406 55.7458ZM211.174 51.4678L211.715 49.6074L211.704 49.6041L211.692 49.601L211.174 51.4678ZM208.058 50.9795L208.203 49.0475L208.202 49.0474L208.058 50.9795ZM198.665 50.282L198.512 52.2135L198.522 52.2142L198.665 50.282ZM194.829 48.8405L193.555 50.3001L193.567 50.3108L193.58 50.3214L194.829 48.8405ZM194.201 43.121L192.613 42.012L192.608 42.0182L194.201 43.121ZM195.922 41.3773L196.912 43.0426L199.202 41.6808L197.201 39.9219L195.922 41.3773ZM194.224 29.171L192.572 28.1594L192.569 28.1642L194.224 29.171ZM198.084 25.5905L198.989 27.3037L198.995 27.3003L199.002 27.297L198.084 25.5905ZM208.965 25.3813L208.091 27.1106L208.098 27.1142L208.965 25.3813ZM212.383 28.055L210.841 29.2286L213.699 32.9836L214.304 28.3034L212.383 28.055ZM212.824 24.6373V22.6998H211.121L210.903 24.3889L212.824 24.6373ZM216.544 24.6373L218.458 24.9395L218.812 22.6998H216.544V24.6373ZM215.01 34.3558L213.096 34.0536L213.095 34.0612L215.01 34.3558ZM213.266 39.2848L214.923 40.2894L214.928 40.2816L213.266 39.2848ZM209.639 42.7723L210.587 44.4619L210.593 44.4587L209.639 42.7723ZM198.572 43.028L199.333 41.2463L198.305 40.8069L197.41 41.478L198.572 43.028ZM197.712 43.8883L196.179 42.7036L196.162 42.7259L196.145 42.7487L197.712 43.8883ZM198.014 46.4225L196.779 47.9152L196.794 47.928L196.81 47.9406L198.014 46.4225ZM200.688 47.12L200.531 49.0512L200.533 49.0514L200.688 47.12ZM209.267 38.8663L208.008 37.394L207.999 37.4016L209.267 38.8663ZM198.758 29.5663L200.033 31.0255L200.033 31.0255L198.758 29.5663ZM198.665 38.8663L197.396 40.3299L197.406 40.3386L198.665 38.8663ZM209.256 49.7492C211.023 49.8872 212.308 50.3043 213.219 50.8895L215.313 47.6286C213.713 46.6018 211.758 46.0579 209.558 45.8859L209.256 49.7492ZM213.243 50.9043C213.829 51.269 214.235 51.8564 214.235 53.1185H218.11C218.11 50.8156 217.245 48.8301 215.289 47.6138L213.243 50.9043ZM214.235 53.1185C214.235 54.2863 213.702 55.3439 212.108 56.3299L214.146 59.6257C216.612 58.1007 218.11 55.9188 218.11 53.1185H214.235ZM212.108 56.3299C210.535 57.3021 207.871 57.9235 203.827 57.9235V61.7985C208.121 61.7985 211.657 61.1645 214.146 59.6257L212.108 56.3299ZM203.827 57.9235C200.035 57.9235 197.476 57.3587 195.909 56.4599L193.981 59.8212C196.413 61.2164 199.775 61.7985 203.827 61.7985V57.9235ZM195.899 56.4543C194.386 55.598 193.883 54.6317 193.883 53.4905H190.008C190.008 56.2864 191.505 58.4201 193.991 59.8268L195.899 56.4543ZM193.883 53.4905C193.883 53.0116 193.938 52.6489 194.016 52.38L190.295 51.2996C190.094 51.9917 190.008 52.7295 190.008 53.4905H193.883ZM193.993 52.4525C194.117 52.0807 194.228 51.8562 194.305 51.7352L191.029 49.6659C190.733 50.1338 190.503 50.6689 190.317 51.2271L193.993 52.4525ZM192.383 52.6171L196.149 53.1751L196.717 49.342L192.951 48.784L192.383 52.6171ZM194.866 50.119C194.586 50.5043 194.389 50.9561 194.24 51.3637L197.882 52.6879C197.927 52.5637 197.964 52.4781 197.991 52.4235C198.019 52.3657 198.024 52.3651 198 52.3981L194.866 50.119ZM194.208 51.4617C194.032 52.0398 193.961 52.6471 193.961 53.258H197.836C197.836 52.939 197.874 52.7248 197.915 52.5899L194.208 51.4617ZM193.961 53.258C193.961 54.2716 194.26 55.2435 194.924 56.0608C195.566 56.851 196.439 57.362 197.371 57.6898L198.657 54.0343C198.179 53.8661 197.994 53.695 197.931 53.6173C197.89 53.5666 197.836 53.4845 197.836 53.258H193.961ZM197.354 57.6835C199.076 58.308 201.338 58.5668 204.013 58.5668V54.6918C201.511 54.6918 199.774 54.4391 198.675 54.0406L197.354 57.6835ZM204.013 58.5668C206.972 58.5668 209.433 58.2766 211.175 57.5245L209.638 53.9671C208.652 54.393 206.851 54.6918 204.013 54.6918V58.5668ZM211.175 57.5245C212.859 56.797 214.39 55.4815 214.39 53.351H210.515C210.515 53.3672 210.514 53.3758 210.513 53.3786C210.513 53.3812 210.512 53.3822 210.512 53.3829C210.512 53.3837 210.51 53.3884 210.504 53.3977C210.499 53.4072 210.488 53.4237 210.468 53.4468C210.382 53.5475 210.154 53.7443 209.638 53.9671L211.175 57.5245ZM214.39 53.351C214.39 52.5843 214.228 51.7611 213.736 51.0362C213.227 50.2877 212.497 49.8349 211.715 49.6074L210.632 53.3282C210.677 53.341 210.671 53.3457 210.638 53.3236C210.622 53.3127 210.603 53.2973 210.583 53.277C210.563 53.2567 210.545 53.2348 210.53 53.213C210.499 53.1675 210.494 53.1407 210.498 53.1553C210.502 53.1731 210.515 53.2335 210.515 53.351H214.39ZM211.692 49.601C210.693 49.3235 209.52 49.1463 208.203 49.0475L207.913 52.9116C209.076 52.9988 209.98 53.1471 210.655 53.3346L211.692 49.601ZM208.202 49.0474L198.809 48.3499L198.522 52.2142L207.915 52.9117L208.202 49.0474ZM198.818 48.3506C197.57 48.2517 196.701 47.8848 196.078 47.3597L193.58 50.3214C194.941 51.4703 196.63 52.0644 198.512 52.2135L198.818 48.3506ZM196.103 47.381C195.514 46.8664 195.302 46.3537 195.302 45.7483H191.427C191.427 47.5609 192.191 49.1097 193.555 50.3001L196.103 47.381ZM195.302 45.7483C195.302 45.212 195.452 44.7185 195.794 44.2239L192.608 42.0182C191.835 43.1355 191.427 44.3936 191.427 45.7483H195.302ZM195.79 44.2301C196.278 43.5315 196.663 43.1904 196.912 43.0426L194.931 39.7119C194.033 40.2462 193.272 41.0676 192.613 42.012L195.79 44.2301ZM197.201 39.9219C195.61 38.5242 194.79 36.7016 194.79 34.2628H190.915C190.915 37.714 192.141 40.6344 194.643 42.8327L197.201 39.9219ZM194.79 34.2628C194.79 32.6994 195.164 31.3553 195.88 30.1779L192.569 28.1642C191.456 29.9938 190.915 32.0442 190.915 34.2628H194.79ZM195.877 30.1827C196.617 28.9735 197.64 28.0165 198.989 27.3037L197.179 23.8774C195.242 24.9006 193.692 26.3306 192.572 28.1594L195.877 30.1827ZM199.002 27.297C200.326 26.585 201.886 26.2028 203.734 26.2028V22.3278C201.335 22.3278 199.128 22.8291 197.166 23.8841L199.002 27.297ZM203.734 26.2028C205.511 26.2028 206.943 26.5305 208.091 27.1106L209.839 23.652C208.042 22.7441 205.986 22.3278 203.734 22.3278V26.2028ZM208.098 27.1142C209.392 27.7611 210.272 28.4813 210.841 29.2286L213.924 26.8815C212.912 25.5518 211.514 24.4895 209.831 23.6483L208.098 27.1142ZM214.304 28.3034L214.746 24.8857L210.903 24.3889L210.461 27.8067L214.304 28.3034ZM212.824 26.5748H216.544V22.6998H212.824V26.5748ZM214.631 24.3351L213.096 34.0536L216.924 34.658L218.458 24.9395L214.631 24.3351ZM213.095 34.0612C212.852 35.6436 212.35 37.0453 211.605 38.288L214.928 40.2816C215.949 38.5793 216.61 36.695 216.925 34.6504L213.095 34.0612ZM211.609 38.2802C210.904 39.4434 209.941 40.3753 208.685 41.0859L210.593 44.4587C212.406 43.4332 213.861 42.0402 214.923 40.2894L211.609 38.2802ZM208.691 41.0827C207.534 41.7321 205.999 42.1135 203.989 42.1135V45.9885C206.475 45.9885 208.707 45.5175 210.587 44.4619L208.691 41.0827ZM203.989 42.1135C202.194 42.1135 200.654 41.8104 199.333 41.2463L197.811 44.8098C199.684 45.6097 201.754 45.9885 203.989 45.9885V42.1135ZM197.41 41.478C196.946 41.8261 196.537 42.24 196.179 42.7036L199.245 45.073C199.414 44.8546 199.579 44.695 199.735 44.578L197.41 41.478ZM196.145 42.7487C195.668 43.4045 195.402 44.1721 195.402 45.0043H199.277C199.277 45.0033 199.277 45.0069 199.276 45.014C199.275 45.0211 199.273 45.0287 199.271 45.0357C199.269 45.0427 199.267 45.0464 199.267 45.0461C199.267 45.0457 199.27 45.0396 199.279 45.0279L196.145 42.7487ZM195.402 45.0043C195.402 46.1666 195.894 47.1825 196.779 47.9152L199.249 44.9299C199.232 44.9151 199.228 44.9097 199.233 44.916C199.239 44.9228 199.249 44.9368 199.258 44.9571C199.268 44.9775 199.274 44.9959 199.276 45.0086C199.279 45.0208 199.277 45.0206 199.277 45.0043H195.402ZM196.81 47.9406C197.335 48.357 197.964 48.5912 198.531 48.7391C199.122 48.8932 199.798 48.9915 200.531 49.0512L200.845 45.1889C200.245 45.1401 199.809 45.0679 199.509 44.9895C199.184 44.9049 199.143 44.8446 199.218 44.9045L196.81 47.9406ZM200.533 49.0514L209.252 49.7489L209.561 45.8862L200.842 45.1887L200.533 49.0514ZM203.966 42.4545C206.533 42.4545 208.806 41.8282 210.535 40.331L207.999 37.4016C207.186 38.1054 205.926 38.5795 203.966 38.5795V42.4545ZM210.527 40.3386C212.33 38.7964 213.134 36.6426 213.134 34.1698H209.259C209.259 35.758 208.778 36.7352 208.008 37.394L210.527 40.3386ZM213.134 34.1698C213.134 31.746 212.313 29.6393 210.557 28.0736L207.978 30.966C208.795 31.6943 209.259 32.6876 209.259 34.1698H213.134ZM210.557 28.0736C208.821 26.5259 206.553 25.8618 203.989 25.8618V29.7368C205.89 29.7368 207.141 30.2196 207.978 30.966L210.557 28.0736ZM203.989 25.8618C201.478 25.8618 199.251 26.563 197.484 28.1071L200.033 31.0255C200.962 30.2135 202.223 29.7368 203.989 29.7368V25.8618ZM197.484 28.1071C195.676 29.6858 194.798 31.7946 194.798 34.2395H198.673C198.673 32.8095 199.143 31.8028 200.033 31.0255L197.484 28.1071ZM194.798 34.2395C194.798 36.6726 195.617 38.7867 197.396 40.3299L199.935 37.4027C199.141 36.7139 198.673 35.7435 198.673 34.2395H194.798ZM197.406 40.3386C199.144 41.8257 201.41 42.4545 203.966 42.4545V38.5795C202.028 38.5795 200.759 38.1079 199.925 37.394L197.406 40.3386ZM222.281 18.3598L221.076 19.8771L221.101 19.8965L221.126 19.9151L222.281 18.3598ZM222.281 15.0118L223.458 16.5509L223.465 16.5459L222.281 15.0118ZM226.071 15.0118L224.866 16.5291L224.88 16.5401L224.894 16.5509L226.071 15.0118ZM226.071 18.3598L227.248 19.8989L227.262 19.8881L227.276 19.8771L226.071 18.3598ZM222.212 49.3288H220.274V51.2663H222.212V49.3288ZM222.212 24.6373V22.6998H220.274V24.6373H222.212ZM226.118 24.6373H228.055V22.6998H226.118V24.6373ZM226.118 49.3288V51.2663H228.055V49.3288H226.118ZM224.188 17.0268C223.841 17.0268 223.619 16.9395 223.437 16.8045L221.126 19.9151C222.029 20.586 223.078 20.9018 224.188 20.9018V17.0268ZM223.486 16.8425C223.46 16.8217 223.449 16.8085 223.446 16.8051C223.445 16.8031 223.444 16.8023 223.444 16.8027C223.444 16.8028 223.445 16.803 223.445 16.8033C223.445 16.8035 223.445 16.8036 223.445 16.8036C223.445 16.8035 223.445 16.8032 223.444 16.8025C223.444 16.8018 223.444 16.8005 223.443 16.7987C223.442 16.7952 223.44 16.7887 223.438 16.7787C223.434 16.7586 223.428 16.7214 223.428 16.6625H219.553C219.553 17.926 220.056 19.0665 221.076 19.8771L223.486 16.8425ZM223.428 16.6625C223.428 16.6103 223.433 16.5801 223.436 16.5674C223.438 16.5555 223.44 16.5559 223.436 16.5635C223.432 16.5714 223.428 16.5771 223.427 16.5784C223.426 16.5792 223.434 16.5693 223.458 16.5509L221.104 13.4727C220.07 14.2637 219.553 15.3977 219.553 16.6625H223.428ZM223.465 16.5459C223.646 16.4061 223.859 16.3215 224.188 16.3215V12.4465C223.06 12.4465 222.002 12.7805 221.098 13.4777L223.465 16.5459ZM224.188 16.3215C224.517 16.3215 224.711 16.4057 224.866 16.5291L227.276 13.4945C226.377 12.7809 225.315 12.4465 224.188 12.4465V16.3215ZM224.894 16.5509C224.918 16.5693 224.926 16.5792 224.926 16.5784C224.924 16.5771 224.92 16.5714 224.917 16.5635C224.913 16.5559 224.914 16.5555 224.917 16.5674C224.919 16.5801 224.924 16.6103 224.924 16.6625H228.799C228.799 15.3977 228.282 14.2637 227.248 13.4727L224.894 16.5509ZM224.924 16.6625C224.924 16.7214 224.919 16.7586 224.915 16.7787C224.913 16.7887 224.911 16.7952 224.909 16.7987C224.909 16.8005 224.908 16.8018 224.908 16.8025C224.908 16.8032 224.908 16.8035 224.908 16.8036C224.908 16.8036 224.908 16.8035 224.908 16.8033C224.908 16.803 224.908 16.8028 224.908 16.8027C224.908 16.8023 224.908 16.8031 224.906 16.8051C224.904 16.8085 224.892 16.8217 224.866 16.8425L227.276 19.8771C228.297 19.0665 228.799 17.926 228.799 16.6625H224.924ZM224.894 16.8207C224.739 16.9397 224.535 17.0268 224.188 17.0268V20.9018C225.298 20.9018 226.35 20.5859 227.248 19.8989L224.894 16.8207ZM224.149 49.3288V24.6373H220.274V49.3288H224.149ZM222.212 26.5748H226.118V22.6998H222.212V26.5748ZM224.18 24.6373V49.3288H228.055V24.6373H224.18ZM226.118 47.3913H222.212V51.2663H226.118V47.3913ZM233.468 49.3288H231.53V51.2663H233.468V49.3288ZM233.468 24.6373V22.6998H231.53V24.6373H233.468ZM237.42 24.6373H239.358V22.6998H237.42V24.6373ZM237.42 28.2643H235.483V33.8713L238.945 29.4605L237.42 28.2643ZM241.001 25.358L241.867 27.091L241.875 27.0873L241.001 25.358ZM252.486 26.6833L251.162 28.0972L251.168 28.1031L252.486 26.6833ZM255.09 49.3288V51.2663H257.028V49.3288H255.09ZM251.138 49.3288H249.2V51.2663H251.138V49.3288ZM249.65 29.7755L248.166 31.0217L248.171 31.0275L248.176 31.0332L249.65 29.7755ZM241.117 29.0548L242.111 30.7182L242.117 30.7142L241.117 29.0548ZM238.42 31.775L236.755 30.7848L236.751 30.7917L238.42 31.775ZM237.42 49.3288V51.2663H239.358V49.3288H237.42ZM235.405 49.3288V24.6373H231.53V49.3288H235.405ZM233.468 26.5748H237.42V22.6998H233.468V26.5748ZM235.483 24.6373V28.2643H239.358V24.6373H235.483ZM238.945 29.4605C239.724 28.4669 240.691 27.6791 241.867 27.091L240.134 23.6251C238.459 24.463 237.038 25.6127 235.896 27.0681L238.945 29.4605ZM241.875 27.0873C243.043 26.4968 244.278 26.2028 245.604 26.2028V22.3278C243.676 22.3278 241.842 22.7623 240.127 23.6288L241.875 27.0873ZM245.604 26.2028C248.092 26.2028 249.875 26.8912 251.162 28.0972L253.811 25.2694C251.657 23.2514 248.852 22.3278 245.604 22.3278V26.2028ZM251.168 28.1031C252.43 29.2748 253.153 30.9472 253.153 33.3793H257.028C257.028 30.1074 256.015 27.3158 253.805 25.2635L251.168 28.1031ZM253.153 33.3793V49.3288H257.028V33.3793H253.153ZM255.09 47.3913H251.138V51.2663H255.09V47.3913ZM253.075 49.3288V34.4255H249.2V49.3288H253.075ZM253.075 34.4255C253.075 32.1538 252.488 30.1168 251.124 28.5179L248.176 31.0332C248.796 31.7593 249.2 32.8223 249.2 34.4255H253.075ZM251.133 28.5294C249.638 26.7487 247.34 26.0943 244.791 26.0943V29.9693C246.767 29.9693 247.709 30.4773 248.166 31.0217L251.133 28.5294ZM244.791 26.0943C243.12 26.0943 241.549 26.532 240.117 27.3954L242.117 30.7142C242.948 30.2136 243.827 29.9693 244.791 29.9693V26.0943ZM240.124 27.3914C238.724 28.2275 237.597 29.3687 236.755 30.7848L240.085 32.7653C240.607 31.8873 241.279 31.2151 242.111 30.7182L240.124 27.3914ZM236.751 30.7917C235.896 32.2432 235.483 33.8583 235.483 35.588H239.358C239.358 34.4968 239.612 33.5698 240.09 32.7584L236.751 30.7917ZM235.483 35.588V49.3288H239.358V35.588H235.483ZM237.42 47.3913H233.468V51.2663H237.42V47.3913ZM285.514 41.5633L287.445 41.7223L287.618 39.6258H285.514V41.5633ZM283.957 45.446L282.393 44.3019L282.391 44.3053L283.957 45.446ZM280.004 48.5848L280.839 50.3332L280.845 50.3302L280.852 50.3271L280.004 48.5848ZM267.1 48.1895L268.065 46.509L268.065 46.509L267.1 48.1895ZM262.636 43.679L260.943 44.6212L260.949 44.6315L262.636 43.679ZM262.66 30.4033L264.344 31.3616L264.347 31.3558L262.66 30.4033ZM267.147 25.8928L268.105 27.5767L268.105 27.5767L267.147 25.8928ZM280.167 25.8928L279.178 27.5592L279.178 27.5592L280.167 25.8928ZM284.398 30.3568L282.683 31.2569L282.686 31.2627L284.398 30.3568ZM285.863 37.7503L287.799 37.8248L287.799 37.8248L285.863 37.7503ZM285.793 38.564V40.5015H287.348L287.685 38.9843L285.793 38.564ZM264.961 38.564V36.6265H262.77L263.039 38.8013L264.961 38.564ZM267.728 44.1673L269 42.7056L269 42.7056L267.728 44.1673ZM278.074 45.4925L278.82 47.281L278.83 47.2766L278.841 47.2721L278.074 45.4925ZM280.585 43.7023L279.076 42.488L279.068 42.498L279.06 42.5082L280.585 43.7023ZM281.562 41.5633V39.6258H279.824L279.636 41.3539L281.562 41.5633ZM267.914 29.7755L269.135 31.2797L269.144 31.2724L267.914 29.7755ZM265.031 35.03L263.118 34.7245L262.76 36.9675H265.031V35.03ZM281.632 35.03V36.9675H283.71L283.564 34.8942L281.632 35.03ZM279.423 29.9615L278.015 31.2924L278.022 31.3001L279.423 29.9615ZM283.584 41.4043C283.51 42.3029 283.153 43.2635 282.393 44.3019L285.52 46.5902C286.621 45.0866 287.302 43.4587 287.445 41.7223L283.584 41.4043ZM282.391 44.3053C281.701 45.2517 280.657 46.1125 279.157 46.8425L280.852 50.3271C282.792 49.3831 284.383 48.1514 285.523 46.5868L282.391 44.3053ZM279.169 46.8364C277.779 47.5005 275.967 47.8795 273.657 47.8795V51.7545C276.369 51.7545 278.789 51.3121 280.839 50.3332L279.169 46.8364ZM273.657 47.8795C271.468 47.8795 269.624 47.4036 268.065 46.509L266.136 49.8701C268.359 51.1455 270.886 51.7545 273.657 51.7545V47.8795ZM268.065 46.509C266.48 45.5996 265.24 44.3493 264.324 42.7266L260.949 44.6315C262.203 46.8528 263.939 48.6095 266.136 49.8701L268.065 46.509ZM264.33 42.737C263.441 41.14 262.97 39.2636 262.97 37.0528H259.095C259.095 39.833 259.693 42.3741 260.943 44.6211L264.33 42.737ZM262.97 37.0528C262.97 34.8107 263.449 32.9343 264.344 31.3616L260.976 29.445C259.701 31.6853 259.095 34.2419 259.095 37.0528H262.97ZM264.347 31.3558C265.261 29.737 266.505 28.4872 268.105 27.5767L266.189 24.2089C263.976 25.4684 262.229 27.2255 260.973 29.4508L264.347 31.3558ZM268.105 27.5767C269.687 26.6766 271.527 26.2028 273.68 26.2028V22.3278C270.935 22.3278 268.42 22.939 266.189 24.2089L268.105 27.5767ZM273.68 26.2028C275.889 26.2028 277.697 26.6804 279.178 27.5592L281.155 24.2264C278.979 22.9352 276.463 22.3278 273.68 22.3278V26.2028ZM279.178 27.5592C280.697 28.4602 281.857 29.6823 282.683 31.2569L286.114 29.4567C284.956 27.2493 283.295 25.4954 281.155 24.2264L279.178 27.5592ZM282.686 31.2627C283.512 32.8239 283.949 34.6448 283.949 36.7738H287.824C287.824 34.0978 287.269 31.6407 286.111 29.4509L282.686 31.2627ZM283.949 36.7738C283.949 36.9865 283.942 37.2844 283.927 37.6758L287.799 37.8248C287.815 37.4102 287.824 37.0571 287.824 36.7738H283.949ZM283.927 37.6758C283.92 37.8599 283.912 37.9958 283.904 38.0905C283.9 38.1374 283.896 38.1664 283.894 38.181C283.892 38.1989 283.894 38.1823 283.902 38.1437L287.685 38.9843C287.76 38.6481 287.785 38.206 287.799 37.8248L283.927 37.6758ZM285.793 36.6265H264.961V40.5015H285.793V36.6265ZM263.039 38.8013C263.381 41.5769 264.485 43.9142 266.457 45.629L269 42.7056C267.871 41.7234 267.131 40.3252 266.884 38.3268L263.039 38.8013ZM266.457 45.629C268.429 47.3449 270.927 48.1275 273.773 48.1275V44.2525C271.659 44.2525 270.128 43.6867 269 42.7056L266.457 45.629ZM273.773 48.1275C275.675 48.1275 277.387 47.8781 278.82 47.281L277.329 43.7041C276.53 44.037 275.374 44.2525 273.773 44.2525V48.1275ZM278.841 47.2721C280.157 46.7054 281.296 45.9377 282.111 44.8964L279.06 42.5082C278.759 42.8929 278.224 43.3187 277.308 43.713L278.841 47.2721ZM282.095 44.9166C282.837 43.9941 283.361 42.9426 283.488 41.7727L279.636 41.3539C279.608 41.61 279.481 41.9845 279.076 42.488L282.095 44.9166ZM281.562 43.5008H285.514V39.6258H281.562V43.5008ZM273.727 25.9083C271.035 25.9083 268.644 26.6679 266.684 28.2786L269.144 31.2724C270.315 30.3102 271.8 29.7833 273.727 29.7833V25.9083ZM266.693 28.2714C264.712 29.88 263.54 32.0826 263.118 34.7245L266.944 35.3356C267.236 33.5135 267.986 32.2131 269.135 31.2797L266.693 28.2714ZM265.031 36.9675H281.632V33.0925H265.031V36.9675ZM283.564 34.8942C283.394 32.4746 282.479 30.3554 280.824 28.623L278.022 31.3001C279.033 32.3577 279.59 33.6175 279.699 35.1659L283.564 34.8942ZM280.831 28.6308C279.039 26.7346 276.572 25.9083 273.727 25.9083V29.7833C275.811 29.7833 277.141 30.3675 278.015 31.2923L280.831 28.6308Z" fill="black"/>
</svg>
