<svg width="100" height="100" viewBox="0 0 24 24" fill="none" xmlns="http://www.w3.org/2000/svg">
<path d="M14 2H6C5.46957 2 4.96086 2.21071 4.58579 2.58579C4.21071 2.96086 4 3.46957 4 4V20C4 20.5304 4.21071 21.0391 4.58579 21.4142C4.96086 21.7893 5.46957 22 6 22H18C18.5304 22 19.0391 21.7893 19.4142 21.4142C19.7893 21.0391 20 20.5304 20 20V8L14 2ZM9.998 14.768H8.895V18.042H7.978V14.768H6.893V14H9.998V14.768ZM12.723 18.042L12.358 17.311C12.208 17.029 12.112 16.819 11.999 16.585H11.986C11.903 16.818 11.801 17.028 11.674 17.311L11.339 18.042H10.294L11.465 15.997L10.336 14H11.386L11.74 14.738C11.861 14.983 11.95 15.181 12.046 15.409H12.059C12.155 15.151 12.233 14.971 12.335 14.738L12.676 14H13.719L12.58 15.973L13.778 18.042H12.723ZM17.107 14.768H16.003V18.042H15.086V14.768H14.001V14H17.106V14.768H17.107ZM14 9H13V4L18 9H14Z" fill="black"/>
</svg>
