<svg width="64" height="64" viewBox="0 0 64 64" fill="none" xmlns="http://www.w3.org/2000/svg">
<mask id="path-1-inside-1" fill="white">
<path d="M63.37 53.52C53.982 36.37 44.59 19.22 35.2 2.06997C34.8869 1.47645 34.4177 0.979637 33.8431 0.633088C33.2684 0.286538 32.6101 0.103394 31.939 0.103394C31.268 0.103394 30.6096 0.286538 30.035 0.633088C29.4603 0.979637 28.9912 1.47645 28.678 2.06997C19.289 19.22 9.89204 36.37 0.508045 53.52C-0.944955 56.169 0.907045 59.603 3.76604 59.603H60.116C61.7 59.603 62.764 58.75 63.319 57.593C64.017 56.491 64.204 55.028 63.374 53.518"/>
</mask>
<path d="M35.2 2.06997L31.6622 3.93644L31.6767 3.96382L31.6915 3.99097L35.2 2.06997ZM31.939 0.103394L31.939 -3.89661L31.939 0.103394ZM28.678 2.06997L32.1867 3.99081L32.2015 3.96374L32.2159 3.93644L28.678 2.06997ZM0.508045 53.52L4.01512 55.4436L4.01709 55.44L0.508045 53.52ZM63.319 57.593L59.9399 55.4526L59.8141 55.6511L59.7125 55.863L63.319 57.593ZM66.8787 51.5993C57.4906 34.4491 48.0983 17.2985 38.7086 0.148976L31.6915 3.99097C41.0818 21.1414 50.4734 38.2908 59.8613 55.4407L66.8787 51.5993ZM38.7379 0.2035C38.085 -1.03394 37.1069 -2.06974 35.9088 -2.79225L31.7774 4.05843C31.7286 4.02901 31.6888 3.98684 31.6622 3.93644L38.7379 0.2035ZM35.9088 -2.79225C34.7107 -3.51477 33.3381 -3.89661 31.939 -3.89661V4.10339C31.8821 4.10339 31.8262 4.08785 31.7774 4.05843L35.9088 -2.79225ZM31.939 -3.89661C30.54 -3.89661 29.1674 -3.51477 27.9693 -2.79225L32.1007 4.05843C32.0519 4.08785 31.996 4.10339 31.939 4.10339L31.939 -3.89661ZM27.9693 -2.79225C26.7712 -2.06973 25.793 -1.03393 25.1402 0.2035L32.2159 3.93644C32.1893 3.98683 32.1495 4.02901 32.1007 4.05843L27.9693 -2.79225ZM25.1694 0.149134C15.7815 17.2971 6.38311 34.4497 -3.001 51.5999L4.01709 55.44C13.401 38.2902 22.7966 21.1428 32.1867 3.99081L25.1694 0.149134ZM-2.99903 51.5963C-4.44677 54.2357 -4.21117 57.199 -3.00408 59.4471C-1.79711 61.695 0.609842 63.603 3.76604 63.603V55.603C3.81281 55.603 3.86814 55.6105 3.92385 55.6277C3.97806 55.6444 4.01804 55.6656 4.04301 55.6821C4.08817 55.7117 4.07314 55.7166 4.04417 55.6626C4.01581 55.6098 4.00215 55.5513 4.00127 55.5075C4.00061 55.475 4.00603 55.4602 4.01511 55.4436L-2.99903 51.5963ZM3.76604 63.603H60.116V55.603H3.76604V63.603ZM60.116 63.603C63.4185 63.603 65.7865 61.6976 66.9256 59.323L59.7125 55.863C59.6994 55.8903 59.7349 55.8041 59.8747 55.7103C59.9426 55.6647 60.012 55.6337 60.0712 55.6162C60.1295 55.5989 60.1499 55.603 60.116 55.603V63.603ZM66.6982 59.7333C68.1338 57.4668 68.4489 54.4466 66.8794 51.5912L59.8687 55.4448C59.9132 55.5257 59.9238 55.5684 59.9249 55.5729C59.9257 55.5762 59.9248 55.5735 59.924 55.5655C59.9232 55.5575 59.9228 55.5467 59.9234 55.5338C59.9245 55.5067 59.9296 55.4829 59.9351 55.4661C59.9402 55.4505 59.9437 55.4466 59.9399 55.4526L66.6982 59.7333Z" fill="#FFDD15" mask="url(#path-1-inside-1)"/>
<path d="M28.917 34.477L28.028 21.215C27.862 18.632 27.782 16.776 27.782 15.65C27.782 14.116 28.182 12.923 28.984 12.062C29.789 11.206 30.847 10.776 32.159 10.776C33.742 10.776 34.805 11.327 35.337 12.422C35.874 13.524 36.146 15.106 36.146 17.173C36.146 18.388 36.08 19.626 35.948 20.881L34.758 34.53C34.629 36.156 34.354 37.402 33.931 38.269C33.505 39.14 32.803 39.57 31.822 39.57C30.83 39.57 30.132 39.151 29.75 38.313C29.357 37.472 29.082 36.193 28.917 34.477V34.477ZM31.989 52.694C30.864 52.694 29.883 52.332 29.042 51.601C28.201 50.873 27.782 49.853 27.782 48.543C27.782 47.4 28.182 46.423 28.984 45.622C29.789 44.816 30.77 44.416 31.935 44.416C33.1 44.416 34.088 44.816 34.912 45.622C35.727 46.423 36.146 47.4 36.146 48.543C36.146 49.833 35.727 50.851 34.9 51.587C34.1049 52.3115 33.0645 52.7071 31.989 52.694" fill="#1F2E35"/>
</svg>
