<svg width="100" height="100" viewBox="0 0 24 24" fill="none" xmlns="http://www.w3.org/2000/svg">
<path d="M13.3333 7.3125V2H5C4.44583 2 4 2.41797 4 2.9375V21.0625C4 21.582 4.44583 22 5 22H19C19.5542 22 20 21.582 20 21.0625V8.25H14.3333C13.7833 8.25 13.3333 7.82812 13.3333 7.3125ZM15.7125 12H16.7083C17.0292 12 17.2667 12.2773 17.1958 12.5742L15.6125 19.1367C15.5625 19.3516 15.3583 19.5 15.125 19.5H13.5417C13.3125 19.5 13.1125 19.3516 13.0583 19.1445C11.9833 15.1016 12.1917 15.9727 11.9917 14.8281H11.9708C11.925 15.3867 11.8708 15.5078 10.9042 19.1445C10.85 19.3516 10.65 19.5 10.4208 19.5H8.875C8.64167 19.5 8.4375 19.3477 8.3875 19.1328L6.8125 12.5703C6.74167 12.2773 6.97917 12 7.3 12H8.32083C8.55833 12 8.76667 12.1563 8.8125 12.3789C9.4625 15.4258 9.65 16.6562 9.6875 17.1523C9.75417 16.7539 9.99167 15.875 10.9125 12.3594C10.9667 12.1484 11.1667 12.0039 11.4 12.0039H12.6125C12.8458 12.0039 13.0458 12.1523 13.1 12.3633C14.1 16.2852 14.3 17.207 14.3333 17.418C14.325 16.9805 14.225 16.7227 15.2333 12.3711C15.275 12.1523 15.4792 12 15.7125 12V12ZM20 6.76172V7H14.6667V2H14.9208C15.1875 2 15.4417 2.09766 15.6292 2.27344L19.7083 6.10156C19.8958 6.27734 20 6.51563 20 6.76172Z" fill="black"/>
</svg>
