<svg width="100" height="100" viewBox="0 0 15 15" fill="none" xmlns="http://www.w3.org/2000/svg">
<path d="M13.5 3.5H14V3.293L13.854 3.146L13.5 3.5V3.5ZM10.5 0.5L10.854 0.146L10.707 0H10.5V0.5ZM6.5 10.5H6V11H6.5V10.5ZM4.5 9.5H5V9.293L4.854 9.146L4.5 9.5ZM2.5 7.5H2V7.707L2.146 7.854L2.5 7.5ZM10.5 6.5V6H10V6.5H10.5ZM10.5 8.5H10V9H10.5V8.5ZM12.5 8.5H13V8H12.5V8.5ZM12.5 10.5V11H13V10.5H12.5ZM2.5 9.5L2.146 9.146L2 9.293V9.5H2.5ZM4.5 7.5L4.854 7.854L5 7.707V7.5H4.5ZM2 5V1.5H1V5H2ZM13 3.5V5H14V3.5H13ZM2.5 1H10.5V0H2.5V1ZM10.146 0.854L13.146 3.854L13.854 3.146L10.854 0.146L10.146 0.854V0.854ZM2 1.5C2 1.36739 2.05268 1.24021 2.14645 1.14645C2.24021 1.05268 2.36739 1 2.5 1V0C2.10218 0 1.72064 0.158035 1.43934 0.43934C1.15804 0.720644 1 1.10218 1 1.5H2ZM1 12V13.5H2V12H1ZM2.5 15H12.5V14H2.5V15ZM14 13.5V12H13V13.5H14ZM12.5 15C12.8978 15 13.2794 14.842 13.5607 14.5607C13.842 14.2794 14 13.8978 14 13.5H13C13 13.6326 12.9473 13.7598 12.8536 13.8536C12.7598 13.9473 12.6326 14 12.5 14V15ZM1 13.5C1 13.8978 1.15804 14.2794 1.43934 14.5607C1.72064 14.842 2.10218 15 2.5 15V14C2.36739 14 2.24021 13.9473 2.14645 13.8536C2.05268 13.7598 2 13.6326 2 13.5H1ZM6 6V10.5H7V6H6ZM6.5 11H9V10H6.5V11ZM4 9.5V11H5V9.5H4ZM4.854 9.146L2.854 7.146L2.146 7.854L4.146 9.854L4.854 9.146ZM3 7.5V6H2V7.5H3ZM13 6H10.5V7H13V6ZM10 6.5V8.5H11V6.5H10ZM10.5 9H12.5V8H10.5V9ZM12 8.5V10.5H13V8.5H12ZM12.5 10H10V11H12.5V10ZM3 11V9.5H2V11H3ZM2.854 9.854L4.854 7.854L4.146 7.146L2.146 9.146L2.854 9.854ZM5 7.5V6H4V7.5H5Z" fill="black"/>
</svg>
