<svg width="100" height="100" viewBox="0 0 100 100" fill="none" xmlns="http://www.w3.org/2000/svg">
<path d="M61.1905 47.9688L26.5999 41.875V86.9031C26.6003 87.3923 26.697 87.8766 26.8846 88.3284C27.0722 88.7802 27.3469 89.1906 27.6931 89.5362C28.0393 89.8818 28.4501 90.1558 28.9022 90.3427C29.3543 90.5295 29.8388 90.6254 30.328 90.625H90.0155C90.5052 90.6262 90.9903 90.5309 91.4431 90.3445C91.8959 90.158 92.3076 89.8841 92.6544 89.5384C93.0013 89.1927 93.2765 88.782 93.4645 88.3298C93.6525 87.8776 93.7494 87.3928 93.7498 86.9031V70.3125L61.1905 47.9688Z" fill="#185C37"/>
<path d="M61.1905 9.375H30.328C29.8388 9.37459 29.3543 9.47053 28.9022 9.65735C28.4501 9.84417 28.0393 10.1182 27.6931 10.4638C27.3469 10.8094 27.0722 11.2198 26.8846 11.6716C26.697 12.1234 26.6003 12.6077 26.5999 13.0969V29.6875L61.1905 50L79.5061 56.0938L93.7498 50V29.6875L61.1905 9.375Z" fill="#21A366"/>
<path d="M26.5999 29.6875H61.1905V50H26.5999V29.6875Z" fill="#107C41"/>
<path opacity="0.1" d="M51.3561 25.625H26.5999V76.4062H51.3561C52.3426 76.4013 53.2874 76.0079 53.9858 75.3113C54.6842 74.6146 55.08 73.6708 55.0874 72.6844V29.3469C55.08 28.3604 54.6842 27.4166 53.9858 26.72C53.2874 26.0233 52.3426 25.6299 51.3561 25.625V25.625Z" fill="black"/>
<path opacity="0.2" d="M49.3217 27.6562H26.5999V78.4375H49.3217C50.3082 78.4326 51.253 78.0392 51.9514 77.3425C52.6498 76.6459 53.0456 75.7021 53.053 74.7156V31.3781C53.0456 30.3917 52.6498 29.4479 51.9514 28.7512C51.253 28.0546 50.3082 27.6612 49.3217 27.6562V27.6562Z" fill="black"/>
<path opacity="0.2" d="M49.3217 27.6562H26.5999V74.375H49.3217C50.3082 74.3701 51.253 73.9767 51.9514 73.28C52.6498 72.5834 53.0456 71.6396 53.053 70.6531V31.3781C53.0456 30.3917 52.6498 29.4479 51.9514 28.7512C51.253 28.0546 50.3082 27.6612 49.3217 27.6562V27.6562Z" fill="black"/>
<path opacity="0.2" d="M47.2874 27.6562H26.5999V74.375H47.2874C48.2738 74.3701 49.2186 73.9767 49.917 73.28C50.6154 72.5834 51.0112 71.6396 51.0186 70.6531V31.3781C51.0112 30.3917 50.6154 29.4479 49.917 28.7512C49.2186 28.0546 48.2738 27.6612 47.2874 27.6562V27.6562Z" fill="black"/>
<path d="M9.98125 27.6563H47.2875C48.2757 27.6554 49.2238 28.047 49.9235 28.7449C50.6231 29.4428 51.0171 30.3899 51.0188 31.3781V68.6219C51.0171 69.6101 50.6231 70.5572 49.9235 71.2551C49.2238 71.953 48.2757 72.3446 47.2875 72.3438H9.98125C9.49181 72.3446 9.00701 72.2489 8.55456 72.0623C8.1021 71.8757 7.69086 71.6017 7.34434 71.256C6.99782 70.9104 6.72282 70.4998 6.53504 70.0479C6.34727 69.5959 6.25041 69.1113 6.25 68.6219V31.3781C6.25041 30.8887 6.34727 30.4041 6.53504 29.9521C6.72282 29.5002 6.99782 29.0896 7.34434 28.744C7.69086 28.3983 8.1021 28.1243 8.55456 27.9377C9.00701 27.7511 9.49181 27.6554 9.98125 27.6563V27.6563Z" fill="url(#paint0_linear)"/>
<path d="M17.8125 62.1031L25.6594 49.9656L18.4719 37.8969H24.2437L28.1656 45.625C28.5281 46.3562 28.7906 46.9 28.9094 47.2625H28.9625C29.2187 46.675 29.4906 46.1094 29.775 45.5562L33.9687 37.9093H39.2812L31.9094 49.9094L39.4687 62.1125H33.8156L29.2844 53.6406C29.074 53.2764 28.8952 52.8948 28.75 52.5H28.675C28.5429 52.8846 28.3667 53.2527 28.15 53.5968L23.4844 62.1031H17.8125Z" fill="white"/>
<path d="M90.0188 9.37501H61.1907V29.6875H93.7501V13.0969C93.7496 12.6074 93.6528 12.1229 93.465 11.6709C93.2772 11.2189 93.0022 10.8084 92.6557 10.4627C92.3092 10.1171 91.898 9.8431 91.4455 9.65646C90.993 9.46982 90.5082 9.37418 90.0188 9.37501V9.37501Z" fill="#33C481"/>
<path d="M61.1907 50H93.7501V70.3125H61.1907V50Z" fill="#107C41"/>
<defs>
<linearGradient id="paint0_linear" x1="14.0437" y1="24.7313" x2="43.225" y2="75.2688" gradientUnits="userSpaceOnUse">
<stop stop-color="#18884F"/>
<stop offset="0.5" stop-color="#117E43"/>
<stop offset="1" stop-color="#0B6631"/>
</linearGradient>
</defs>
</svg>
