<svg width="100" height="100" viewBox="0 0 100 100" fill="none" xmlns="http://www.w3.org/2000/svg">
<path d="M18.4439 85.0031L11.422 6.25H88.5782L81.547 84.9906L49.9532 93.75L18.4439 85.0031Z" fill="#E44F26"/>
<path d="M50 87.0562L75.5313 79.9781L81.5375 12.6906H50V87.0562Z" fill="#F1662A"/>
<path d="M50 41.8969H37.2187L36.3375 32.0063H50V22.3469H25.7812L26.0125 24.9407L28.3844 51.5563H50V41.8969V41.8969Z" fill="#EBEBEB"/>
<path d="M49.9999 66.9812L49.9562 66.9937L39.1999 64.0906L38.5124 56.3875H28.8156L30.1687 71.5499L49.9562 77.0437L49.9999 77.0312V66.9812Z" fill="#EBEBEB"/>
<path d="M49.9657 41.8969V51.5562H61.8594L60.7407 64.0844L49.9657 66.9906V77.0406L69.7688 71.55L69.9126 69.9187L72.1813 44.4906L72.4188 41.8969H49.9657V41.8969Z" fill="white"/>
<path d="M49.9657 22.3469V32.0063H73.2969L73.4907 29.8376L73.9313 24.9407L74.1626 22.3469H49.9657V22.3469Z" fill="white"/>
</svg>
