<svg width="100" height="100" viewBox="0 0 100 100" fill="none" xmlns="http://www.w3.org/2000/svg">
<path d="M12.5435 46.8C14.3116 46.8278 16.0372 46.2574 17.4403 45.1813C18.7378 44.0946 19.6254 42.5974 19.956 40.9375C20.4756 37.8997 20.6996 34.8186 20.6247 31.7375C20.6497 27.3938 20.7278 24.5323 20.8591 23.1531C20.9981 21.3364 21.4396 19.5557 22.1653 17.8844C22.7183 16.6693 23.5224 15.5851 24.5247 14.7031C25.5816 13.8489 26.8091 13.2309 28.1247 12.8906C29.7128 12.576 31.3317 12.445 32.9497 12.5H35.1372V18.625H33.9278C32.0102 18.381 30.0741 18.9069 28.5435 20.0875C27.4104 22.0676 26.9447 24.3598 27.2153 26.625C27.3198 30.9349 27.1769 35.2472 26.7872 39.5406C26.5035 41.8451 25.6813 44.0504 24.3872 45.9781C22.955 47.7207 21.1301 49.099 19.0622 50C21.7273 51.0217 23.9365 52.9669 25.2872 55.4813C26.8232 59.313 27.4831 63.4397 27.2185 67.5594C27.2185 72.6323 27.2705 75.6531 27.3747 76.6219C27.4147 78.0069 27.9774 79.3254 28.9497 80.3125C30.4557 81.1788 32.1968 81.5474 33.9247 81.3656H35.1341V87.5H32.9466C31.0783 87.5862 29.2081 87.3752 27.406 86.875C25.7844 86.3078 24.3521 85.3018 23.2685 83.9688C22.1165 82.4916 21.3816 80.7326 21.1403 78.875C20.7428 75.5216 20.5705 72.1453 20.6247 68.7688C20.7088 65.5195 20.4849 62.2696 19.956 59.0625C19.6201 57.4021 18.7337 55.9035 17.4403 54.8094C16.0421 53.7219 14.3146 53.1442 12.5435 53.1719V46.8Z" fill="#FBC02D"/>
<path d="M87.456 53.1594C85.6849 53.1317 83.9574 53.7094 82.5591 54.7969C81.2658 55.891 80.3794 57.3896 80.0435 59.05C79.5161 62.2603 79.2943 65.5134 79.381 68.7656C79.4311 72.1424 79.2546 75.5187 78.8529 78.8719C78.6116 80.7295 77.8767 82.4885 76.7248 83.9656C75.6411 85.2986 74.2088 86.3047 72.5873 86.8719C70.7851 87.3721 68.9149 87.5831 67.0466 87.4969H64.8591V81.375H66.0685C67.7964 81.5568 69.5375 81.1882 71.0435 80.3219C72.0218 79.3319 72.5871 78.007 72.6248 76.6157C72.7289 75.6532 72.781 72.6323 72.781 67.5532C72.5164 63.4335 73.1762 59.3068 74.7123 55.475C76.0642 52.9631 78.2732 51.0201 80.9373 50C78.8742 49.0982 77.0538 47.7211 75.6248 45.9813C74.3307 44.0535 73.5085 41.8482 73.2248 39.5438C72.8351 35.2503 72.6921 30.938 72.7966 26.6281C73.0673 24.3629 72.6016 22.0707 71.4685 20.0906C69.9379 18.9101 68.0017 18.3842 66.0841 18.6281H64.8748V12.5H67.0623C68.6761 12.4459 70.2908 12.577 71.8748 12.8906C73.1873 13.2331 74.4116 13.8521 75.4654 14.7063C76.4677 15.5882 77.2718 16.6724 77.8248 17.8875C78.5505 19.5588 78.992 21.3395 79.131 23.1563C79.2602 24.5354 79.3383 27.3969 79.3654 31.7406C79.2878 34.8246 79.5097 37.9089 80.0279 40.95C80.3605 42.6065 81.2478 44.1001 82.5435 45.1844C83.9467 46.2605 85.6723 46.831 87.4404 46.8031L87.456 53.1594Z" fill="#FBC02D"/>
</svg>
