<svg width="100" height="100" viewBox="0 0 100 100" fill="none" xmlns="http://www.w3.org/2000/svg">
<path d="M28.325 9.88123H64.575C73.6943 16.3399 81.6457 24.3061 88.0875 33.4375V89.1937H28.325V9.88123Z" fill="url(#paint0_linear)"/>
<path d="M28.325 9.88123H64.575C73.6943 16.3399 81.6457 24.3061 88.0875 33.4375V89.1937H28.325V9.88123Z" stroke="#C8C8C8" stroke-width="0.5"/>
<path d="M64.569 9.88123C73.677 16.3555 81.628 24.3192 88.0877 33.4375C85.94 31.2302 83.3361 29.5189 80.4579 28.4231C77.5798 27.3274 74.497 26.8736 71.4252 27.0937C71.8633 23.877 71.4621 20.6017 70.2608 17.5858C69.0595 14.5698 67.0987 11.9158 64.569 9.88123V9.88123Z" fill="url(#paint1_linear)"/>
<path d="M64.569 9.88123C73.677 16.3555 81.628 24.3192 88.0877 33.4375C85.94 31.2302 83.3361 29.5189 80.4579 28.4231C77.5798 27.3274 74.497 26.8736 71.4252 27.0937C71.8633 23.877 71.4621 20.6017 70.2608 17.5858C69.0595 14.5698 67.0987 11.9158 64.569 9.88123V9.88123Z" stroke="#C8C8C8" stroke-width="0.5"/>
<path d="M16.6846 20.2999H60.7471V28.7374H16.6846V20.2999Z" stroke="#C8C8C8" stroke-width="4"/>
<path d="M49.4345 62.047C50.8908 59.1907 52.5595 55.9751 53.872 52.7438L54.397 51.4688C52.6658 44.8813 51.6283 39.5938 52.5564 36.1751C52.751 35.7147 53.0868 35.3281 53.5153 35.0708C53.9438 34.8136 54.443 34.6991 54.9408 34.7438H55.7345C57.247 34.722 57.9564 36.6438 58.0377 37.3907C58.0492 38.5226 57.9009 39.6504 57.597 40.7407C57.6713 39.5815 57.4999 38.4197 57.0939 37.3313C56.4689 35.9595 55.872 35.1438 55.3377 35.0095C55.1475 35.1635 54.9931 35.357 54.8852 35.5766C54.7773 35.7962 54.7184 36.0367 54.7127 36.2813C54.554 37.2515 54.4735 38.2327 54.472 39.2157C54.5458 42.1056 55.0008 44.9731 55.8252 47.7438C55.9939 47.2563 56.1377 46.7876 56.2627 46.347C56.447 45.6532 57.6158 41.0626 57.6158 41.0626C57.6158 41.0626 57.322 47.1751 56.9095 49.022C56.822 49.4126 56.7252 49.8001 56.622 50.1938C58.0057 54.1612 60.3017 57.7481 63.3252 60.6657C64.5128 61.6959 65.8126 62.589 67.2002 63.3282C69.8036 62.9356 72.4329 62.7381 75.0658 62.7376C77.1776 62.5246 79.3017 62.9992 81.122 64.0907C81.5231 64.4954 81.7602 65.0341 81.7877 65.6032C81.7741 65.9005 81.7312 66.1957 81.6595 66.4845C81.6908 66.3251 81.6908 65.547 79.3002 64.7782C76.1179 64.1728 72.8543 64.1273 69.6564 64.6439C74.5502 67.0376 79.322 68.2282 80.8314 67.5157C81.15 67.3028 81.4274 67.0338 81.6502 66.722C81.5452 67.2392 81.3925 67.7455 81.1939 68.2345C80.8926 68.6171 80.4815 68.8984 80.0158 69.0407C77.6283 69.6657 71.4158 68.2032 66.0002 65.1095C59.8859 66.0481 53.8578 67.4809 47.9752 69.3938C42.7408 78.5688 38.8033 82.7813 35.6033 81.1782L34.4252 80.5876C34.2103 80.4144 34.0532 80.18 33.9745 79.9155C33.8958 79.651 33.8993 79.3688 33.9845 79.1063C34.3564 77.2813 36.647 74.5282 41.247 71.7813C41.7408 71.4688 43.947 70.3157 43.947 70.3157C43.947 70.3157 42.3127 71.897 41.9314 72.2064C38.2595 75.2157 35.5502 79.0001 35.6158 80.4688V80.597C38.7408 80.1532 43.4127 73.8032 49.4252 62.0376L49.4345 62.047ZM51.3314 63.0126C50.3885 64.7765 49.4238 66.5287 48.4377 68.2689C53.4509 66.2597 58.662 64.7849 63.9845 63.8688C63.2969 63.3961 62.6326 62.8902 61.9939 62.3532C59.2495 59.9861 57.0165 57.0843 55.4314 53.8251C54.2723 56.9786 52.8972 60.0483 51.3158 63.0126" fill="#F91D0A"/>
<path d="M11.7188 15.525H65.6687V33.6594H11.7188V15.525Z" fill="url(#paint2_linear)"/>
<path d="M66.697 34.7469H10.7407V14.4375H66.697V34.7469ZM64.6876 16.45H12.7532V32.7281H64.6876V16.45Z" fill="url(#paint3_linear)"/>
<path d="M25.8186 18.1844H29.7436C30.2392 18.1527 30.7358 18.2287 31.1992 18.4073C31.6626 18.5858 32.0818 18.8627 32.428 19.2188C33.101 20.0403 33.4362 21.0872 33.3655 22.1469C33.4361 23.2113 33.1012 24.2631 32.428 25.0906C32.081 25.445 31.6614 25.7201 31.198 25.8971C30.7347 26.074 30.2385 26.1486 29.7436 26.1156H28.1811V30.3313H25.8186V18.1844ZM28.1842 20.4531V23.8469H29.4936C29.6925 23.8582 29.8913 23.8245 30.0753 23.7482C30.2593 23.6719 30.4236 23.555 30.5561 23.4063C30.824 23.0466 30.9568 22.604 30.9311 22.1563C30.9598 21.7081 30.8268 21.2646 30.5561 20.9063C30.4238 20.7573 30.2594 20.6403 30.0754 20.564C29.8914 20.4877 29.6925 20.4541 29.4936 20.4656H28.1842V20.4531ZM37.3999 20.5625V27.9656H38.2467C38.6632 27.9935 39.0803 27.9232 39.4646 27.7603C39.8489 27.5975 40.1896 27.3467 40.4592 27.0281C41.0233 26.2209 41.2945 25.2451 41.228 24.2625C41.2945 23.2858 41.0255 22.3155 40.4655 21.5125C40.1944 21.194 39.8526 20.9434 39.4673 20.7806C39.082 20.6178 38.6641 20.5474 38.2467 20.575H37.3999V20.5625ZM35.0342 18.2063H37.5342C38.5785 18.1531 39.6242 18.281 40.6249 18.5844C41.3235 18.8562 41.932 19.3185 42.3811 19.9188C42.8199 20.4835 43.1457 21.1275 43.3405 21.8156C43.5592 22.6082 43.6644 23.4279 43.653 24.25C43.6645 25.0794 43.5593 25.9062 43.3405 26.7063C43.1457 27.3944 42.8199 28.0384 42.3811 28.6031C41.9263 29.2052 41.3143 29.6701 40.6124 29.9469C39.6096 30.2513 38.5624 30.3834 37.5155 30.3375H35.0155V18.1844L35.0342 18.2063ZM45.4592 18.1844H51.8749V20.5531H47.8436V22.8125H51.6217V25.1813H47.8436V30.3313H45.478V18.1844" fill="#FFF9F9"/>
<defs>
<linearGradient id="paint0_linear" x1="45.7711" y1="72.0112" x2="67.8776" y2="32.0574" gradientUnits="userSpaceOnUse">
<stop stop-color="white"/>
<stop offset="1" stop-color="#E1E1E1"/>
</linearGradient>
<linearGradient id="paint1_linear" x1="73.6158" y1="24.1594" x2="77.0158" y2="21.025" gradientUnits="userSpaceOnUse">
<stop stop-color="white"/>
<stop offset="1" stop-color="#C8C8C8"/>
</linearGradient>
<linearGradient id="paint2_linear" x1="43.9344" y1="40.7219" x2="33.4531" y2="8.46253" gradientUnits="userSpaceOnUse">
<stop offset="0.127" stop-color="#8A0000"/>
<stop offset="0.244" stop-color="#900000" stop-opacity="0.999"/>
<stop offset="0.398" stop-color="#A00000" stop-opacity="0.999"/>
<stop offset="0.573" stop-color="#BC0000" stop-opacity="0.998"/>
<stop offset="0.761" stop-color="#E20000" stop-opacity="0.997"/>
<stop offset="0.867" stop-color="#FA0000" stop-opacity="0.996"/>
</linearGradient>
<linearGradient id="paint3_linear" x1="44.3751" y1="42" x2="33.0657" y2="7.18438" gradientUnits="userSpaceOnUse">
<stop offset="0.315" stop-color="#5E0000"/>
<stop offset="0.444" stop-color="#830000" stop-opacity="0.999"/>
<stop offset="0.618" stop-color="#AE0000" stop-opacity="0.998"/>
<stop offset="0.775" stop-color="#CD0000" stop-opacity="0.997"/>
<stop offset="0.908" stop-color="#E00000" stop-opacity="0.996"/>
<stop offset="1" stop-color="#E70000" stop-opacity="0.996"/>
</linearGradient>
</defs>
</svg>
