<svg width="100" height="100" viewBox="0 0 100 100" fill="none" xmlns="http://www.w3.org/2000/svg">
<path d="M59.1559 54.0625L53.0528 9.375H52.5965C41.9418 9.3931 31.7275 13.6286 24.1864 21.1556C16.6453 28.6827 12.3908 38.889 12.3528 49.5438V50L59.1559 54.0625Z" fill="#ED6C47"/>
<path d="M53.5095 9.375H53.0532V50L73.4001 58.125L93.7501 50V49.5438C93.7121 38.8896 89.458 28.6837 81.9176 21.1567C74.3772 13.6298 64.1637 9.39393 53.5095 9.375V9.375Z" fill="#FF8F6B"/>
<path d="M93.7497 50V50.4469C93.7101 61.103 89.4544 71.3104 81.9126 78.8387C74.3708 86.3671 64.1559 90.6044 53.4997 90.625H52.6028C41.9471 90.6028 31.7331 86.3649 24.1916 78.8369C16.6502 71.3089 12.394 61.1025 12.3528 50.4469V50H93.7497Z" fill="#D35230"/>
<path opacity="0.1" d="M55.0872 29.3406V72.6875C55.0816 73.425 54.8586 74.1445 54.4461 74.7559C54.0337 75.3673 53.4501 75.8435 52.7684 76.125C52.3233 76.3125 51.8452 76.4092 51.3622 76.4094H21.9591C21.3886 75.755 20.8454 75.0773 20.3309 74.3781C15.1475 67.4781 12.3474 59.0801 12.3528 50.45V49.5562C12.343 41.7717 14.6218 34.156 18.9059 27.6563C19.3502 26.9581 19.8257 26.2803 20.3309 25.625H51.3622C52.3465 25.6315 53.2888 26.0248 53.9857 26.7199C54.6826 27.4151 55.0782 28.3563 55.0872 29.3406V29.3406Z" fill="black"/>
<path opacity="0.2" d="M53.0528 31.375V74.7219C53.0527 75.2029 52.956 75.6789 52.7684 76.1219C52.4865 76.803 52.0101 77.3859 51.3987 77.7977C50.7873 78.2096 50.0681 78.4321 49.3309 78.4375H23.8122C23.1684 77.7833 22.5507 77.1063 21.9591 76.4063C21.3886 75.7519 20.8454 75.0742 20.3309 74.375C15.1475 67.475 12.3474 59.077 12.3528 50.4469V49.5531C12.3436 41.7696 14.6224 34.1551 18.9059 27.6562H49.3278C50.3126 27.6628 51.2554 28.0565 51.9524 28.7523C52.6493 29.4481 53.0446 30.3902 53.0528 31.375V31.375Z" fill="black"/>
<path opacity="0.2" d="M53.0528 31.375V70.6594C53.0438 71.6437 52.6482 72.5849 51.9513 73.2801C51.2544 73.9752 50.3121 74.3685 49.3278 74.375H20.3309C15.1475 67.475 12.3474 59.077 12.3528 50.4469V49.5531C12.3436 41.7696 14.6224 34.1551 18.9059 27.6562H49.3278C50.3126 27.6628 51.2554 28.0565 51.9524 28.7523C52.6493 29.4481 53.0446 30.3902 53.0528 31.375V31.375Z" fill="black"/>
<path opacity="0.2" d="M51.0184 31.375V70.6594C51.0094 71.6437 50.6138 72.5849 49.9169 73.2801C49.22 73.9752 48.2777 74.3685 47.2934 74.375H20.3309C15.1475 67.475 12.3474 59.077 12.3528 50.4469V49.5531C12.3436 41.7696 14.6224 34.1551 18.9059 27.6562H47.2934C48.2783 27.6628 49.221 28.0565 49.918 28.7523C50.615 29.4481 51.0103 30.3902 51.0184 31.375V31.375Z" fill="black"/>
<path d="M9.98125 27.6563H47.2875C48.2757 27.6554 49.2238 28.047 49.9235 28.7449C50.6231 29.4428 51.0171 30.3899 51.0188 31.3781V68.6219C51.0171 69.6101 50.6231 70.5572 49.9235 71.2551C49.2238 71.953 48.2757 72.3446 47.2875 72.3438H9.98125C9.49181 72.3446 9.00701 72.2489 8.55456 72.0623C8.1021 71.8757 7.69086 71.6017 7.34434 71.256C6.99782 70.9104 6.72282 70.4998 6.53504 70.0479C6.34727 69.5959 6.25041 69.1113 6.25 68.6219V31.3781C6.25041 30.8887 6.34727 30.4041 6.53504 29.9521C6.72282 29.5002 6.99782 29.0896 7.34434 28.744C7.69086 28.3983 8.1021 28.1243 8.55456 27.9377C9.00701 27.7511 9.49181 27.6554 9.98125 27.6563V27.6563Z" fill="url(#paint0_linear)"/>
<path d="M29.0409 37.5875C31.4695 37.4242 33.8771 38.1285 35.8347 39.575C36.6396 40.2915 37.2707 41.182 37.68 42.1789C38.0894 43.1757 38.2662 44.2527 38.1972 45.3281C38.2245 46.843 37.8202 48.3344 37.0315 49.6281C36.2336 50.9011 35.0842 51.916 33.7222 52.55C32.1659 53.2717 30.4654 53.6287 28.7503 53.5938H24.0222V62.3438H19.1909V37.5875H29.0409ZM24.019 49.8125H28.1784C29.4972 49.9076 30.8053 49.5175 31.8565 48.7156C32.2864 48.3056 32.6212 47.8063 32.8371 47.2528C33.0531 46.6994 33.1451 46.1053 33.1065 45.5125C33.1065 42.7854 31.518 41.4208 28.3409 41.4188H24.019V49.8125V49.8125Z" fill="white"/>
<defs>
<linearGradient id="paint0_linear" x1="14.0437" y1="24.7313" x2="43.225" y2="75.2688" gradientUnits="userSpaceOnUse">
<stop stop-color="#CA4C28"/>
<stop offset="0.5" stop-color="#C5401E"/>
<stop offset="1" stop-color="#B62F14"/>
</linearGradient>
</defs>
</svg>
